<svg width="20" height="20" viewBox="0 0 20 20" fill="none" xmlns="http://www.w3.org/2000/svg"><rect width="20" height="20" rx="10" stroke="#F6F6F6" /><path d="M17.7612 14.9317C17.7612 15.2122 17.6989 15.5005 17.5664 15.7811C17.434 16.0616 17.2625 16.3265 17.0366 16.5759C16.6547 16.9966 16.234 17.3005 15.7586 17.4953C15.2911 17.6902 14.7846 17.7914 14.2392 17.7914C13.4444 17.7914 12.595 17.6044 11.6989 17.2226C10.8028 16.8408 9.90669 16.3265 9.01838 15.6798C8.12227 15.0252 7.27292 14.3005 6.46253 13.4979C5.65994 12.6876 4.93526 11.8382 4.28851 10.9499C3.64955 10.0616 3.13526 9.17327 2.76123 8.29275C2.38721 7.40443 2.2002 6.55508 2.2002 5.74469C2.2002 5.21482 2.2937 4.70833 2.48071 4.2408C2.66773 3.76547 2.96383 3.32911 3.37682 2.9395C3.87552 2.44859 4.42097 2.20703 4.9976 2.20703C5.21578 2.20703 5.43396 2.25378 5.62877 2.34729C5.83136 2.4408 6.01059 2.58106 6.15085 2.78365L7.95864 5.33171C8.0989 5.52651 8.2002 5.70573 8.27033 5.87716C8.34046 6.0408 8.37942 6.20443 8.37942 6.35249C8.37942 6.5395 8.32487 6.72651 8.21578 6.90573C8.11448 7.08495 7.96643 7.27197 7.77942 7.45898L7.18721 8.07456C7.10149 8.16028 7.06253 8.26158 7.06253 8.38625C7.06253 8.44859 7.07033 8.50314 7.08591 8.56547C7.10929 8.62781 7.13266 8.67456 7.14825 8.72132C7.28851 8.97846 7.53007 9.31353 7.87292 9.71872C8.22357 10.1239 8.5976 10.5369 9.00279 10.9499C9.42357 11.3629 9.82877 11.7447 10.2418 12.0953C10.6469 12.4382 10.982 12.672 11.2469 12.8122C11.2859 12.8278 11.3327 12.8512 11.3872 12.8746C11.4495 12.8979 11.5119 12.9057 11.582 12.9057C11.7145 12.9057 11.8158 12.859 11.9015 12.7733L12.4937 12.1889C12.6885 11.994 12.8755 11.846 13.0547 11.7525C13.234 11.6434 13.4132 11.5889 13.608 11.5889C13.756 11.5889 13.9119 11.62 14.0833 11.6901C14.2547 11.7603 14.434 11.8616 14.6288 11.994L17.208 13.8252C17.4106 13.9655 17.5508 14.1291 17.6366 14.3239C17.7145 14.5187 17.7612 14.7135 17.7612 14.9317Z" stroke="#262626" stroke-width="1.4026" stroke-miterlimit="10" /></svg>