<svg width="21" height="20" viewBox="0 0 21 20" fill="none" xmlns="http://www.w3.org/2000/svg">
<path d="M20.2735 11.8405V19.2195H15.9955V12.3345C15.9955 10.6045 15.3765 9.42446 13.8285 9.42446C12.6465 9.42446 11.9425 10.2205 11.6335 10.9895C11.5205 11.2645 11.4915 11.6475 11.4915 12.0325V19.2195H7.21145C7.21145 19.2195 7.26945 7.55946 7.21145 6.35046H11.4915V8.17446L11.4635 8.21646H11.4915V8.17446C12.0595 7.29946 13.0745 6.04846 15.3475 6.04846C18.1625 6.04846 20.2735 7.88846 20.2735 11.8405ZM2.73545 0.147461C1.27245 0.147461 0.314453 1.10746 0.314453 2.37046C0.314453 3.60546 1.24445 4.59446 2.67945 4.59446H2.70745C4.20045 4.59446 5.12745 3.60546 5.12745 2.37046C5.10145 1.10746 4.20045 0.147461 2.73545 0.147461ZM0.568453 19.2195H4.84645V6.35046H0.568453V19.2195Z" fill="#211332" />
</svg>