<svg width="10" height="10" viewBox="0 0 10 10" fill="none" xmlns="http://www.w3.org/2000/svg"><path fill-rule="evenodd" clip-rule="evenodd" d="M1.3747 1.0639C1.3763 1.45509 1.69471 1.77093 2.0859 1.76936L7.38793 1.74788L0.610877 8.58007C0.335371 8.85782 0.337188 9.30629 0.614936 9.5818C0.892683 9.85731 1.34116 9.85549 1.61666 9.57774L8.39371 2.74555L8.4152 8.04758C8.41679 8.43875 8.73522 8.75461 9.12639 8.75303C9.51757 8.75144 9.83343 8.43301 9.83184 8.04184L9.80343 1.02975C9.80269 0.841911 9.72731 0.662023 9.59394 0.529732C9.46057 0.397441 9.28008 0.323523 9.09224 0.324299L2.08015 0.352712C1.68896 0.354287 1.3731 0.672719 1.3747 1.0639Z" fill="#211332" /></svg>
