 <svg width="20" height="20" viewBox="0 0 20 20" fill="none" xmlns="http://www.w3.org/2000/svg">
                                            <g clip-path="url(#clip0_7920_20745)">
                                                <path fill-rule="evenodd" clip-rule="evenodd" d="M12.4896 1.66669C12.6562 2.58335 12.2396 3.50002 11.7396 4.16669C11.2396 4.83335 10.3229 5.41669 9.40622 5.33335C9.23956 4.41669 9.65623 3.58335 10.1562 2.91669C10.7396 2.25002 11.6562 1.75002 12.4896 1.66669ZM15.1562 16.1667C15.5729 15.5 15.8229 15.0834 16.1562 14.3334C13.5729 13.3334 13.1562 9.66669 15.7396 8.33335C14.9896 7.33335 13.9062 6.83335 12.8229 6.83335C12.0729 6.83335 11.5729 7.00002 11.0729 7.16669C10.6562 7.33335 10.3229 7.41669 9.90623 7.41669C9.40623 7.41669 9.07289 7.25002 8.57289 7.08335C8.07289 6.91669 7.57289 6.75002 6.98956 6.75002C5.82289 6.75002 4.57289 7.41669 3.82289 8.66669C2.73956 10.3334 2.90623 13.5834 4.65623 16.25C5.40623 17.25 6.23956 18.3334 7.32289 18.3334C7.82289 18.3334 8.07289 18.1667 8.40623 18.0834C8.82289 17.9167 9.23956 17.75 9.90623 17.75C10.6562 17.75 10.9896 17.9167 11.4062 18.0834C11.7396 18.25 11.9896 18.3334 12.4896 18.3334C13.6562 18.3334 14.4896 17.0834 15.1562 16.1667Z" fill="black" stroke="black" stroke-width="1.25" stroke-miterlimit="10" stroke-linecap="round" stroke-linejoin="round" />
                                            </g>
                                            <defs>
                                                <clipPath id="clip0_7920_20745">
                                                    <rect width="20" height="20" rx="10" fill="white" />
                                                </clipPath>
                                            </defs>
                                        </svg>
