<svg width="20" height="20" viewBox="0 0 20 20" fill="none" xmlns="http://www.w3.org/2000/svg">
<path d="M15.8807 16.7469C15.7806 16.8601 15.666 16.9077 15.525 16.9077C15.2581 16.9077 14.8283 16.7202 14.2799 16.132C13.4193 15.2084 12.0641 15.284 11.3087 16.2905C11.3086 16.2906 11.3084 16.2908 11.3083 16.291L10.4673 17.4069L10.4673 17.4069L10.4652 17.4097C10.1988 17.7693 9.87453 17.916 9.58333 17.916C9.29214 17.916 8.96789 17.7693 8.70146 17.4097L8.70148 17.4097L8.6991 17.4065L7.85044 16.2832C7.85021 16.2829 7.84999 16.2826 7.84977 16.2823C7.10306 15.2843 5.76064 15.2106 4.90131 16.1171L4.89717 16.1212L4.89206 16.1263L4.88713 16.1316C4.44261 16.6076 4.0683 16.8301 3.79757 16.8922C3.57745 16.9426 3.41841 16.8928 3.28506 16.7449C3.03233 16.1912 2.91667 15.3741 2.91667 14.1327V5.86602C2.91667 4.63565 3.03028 3.8221 3.27834 3.26861C3.41 3.1116 3.56959 3.0568 3.79572 3.10787C4.06702 3.16913 4.44302 3.39153 4.88713 3.86707L4.89206 3.87235L4.89717 3.87745L4.9013 3.88158C5.76063 4.78807 7.10305 4.71444 7.84977 3.71635C7.84999 3.71605 7.85021 3.71575 7.85044 3.71545L8.6991 2.59219L8.69911 2.5922L8.70146 2.58903C8.96789 2.22936 9.29214 2.08268 9.58333 2.08268C9.87452 2.08268 10.1988 2.22936 10.4652 2.58903L10.4652 2.58904L10.4673 2.5918L11.3083 3.70768C11.3084 3.70785 11.3086 3.70802 11.3087 3.70819C12.064 4.71471 13.4192 4.79029 14.2798 3.86684L15.8807 16.7469ZM15.8807 16.7469C16.1341 16.1931 16.25 15.3756 16.25 14.1327V5.86602C16.25 4.63598 16.1364 3.82254 15.8885 3.26906C15.7815 3.14259 15.6621 3.09102 15.525 3.09102C15.2581 3.09102 14.8283 3.27853 14.2799 3.86673L15.8807 16.7469ZM3.33333 3.05768C3.33333 3.05339 3.33388 3.05876 3.33333 3.07099V3.05768ZM15.8333 3.05768V3.07099C15.8328 3.05876 15.8333 3.05339 15.8333 3.05768Z" stroke="#454545" stroke-width="0.833333" />
<path d="M13.3337 9.16602H6.66699C6.32533 9.16602 6.04199 8.88268 6.04199 8.54102C6.04199 8.19935 6.32533 7.91602 6.66699 7.91602H13.3337C13.6753 7.91602 13.9587 8.19935 13.9587 8.54102C13.9587 8.88268 13.6753 9.16602 13.3337 9.16602Z" fill="#454545" />
<path d="M11.667 12.084H6.66699C6.32533 12.084 6.04199 11.8007 6.04199 11.459C6.04199 11.1173 6.32533 10.834 6.66699 10.834H11.667C12.0087 10.834 12.292 11.1173 12.292 11.459C12.292 11.8007 12.0087 12.084 11.667 12.084Z" fill="#454545" />
</svg>