<svg width="24" height="23" viewBox="0 0 24 23" fill="none" xmlns="http://www.w3.org/2000/svg">
<path d="M22.5 11.5V2.75C22.5 2.28587 22.3156 1.84075 21.9874 1.51256C21.6592 1.18437 21.2141 1 20.75 1H3.25C2.78587 1 2.34075 1.18437 2.01256 1.51256C1.68437 1.84075 1.5 2.28587 1.5 2.75V20.25C1.5 20.7141 1.68437 21.1592 2.01256 21.4874C2.34075 21.8156 2.78587 22 3.25 22H12" stroke="#838383" stroke-width="1.5" stroke-linecap="round" stroke-linejoin="round"/>
<path d="M16.666 19.668C18.599 19.668 20.166 18.101 20.166 16.168C20.166 14.235 18.599 12.668 16.666 12.668C14.733 12.668 13.166 14.235 13.166 16.168C13.166 18.101 14.733 19.668 16.666 19.668Z" stroke="#838383" stroke-width="1.5"/>
<path d="M19.5827 18.4987L22.4994 20.832M6.16602 6.83203H17.8327M6.16602 11.4987H10.8327" stroke="#838383" stroke-width="1.5" stroke-linecap="round" stroke-linejoin="round"/>
</svg>
