<svg width="17" height="17" viewBox="0 0 17 17" fill="none" xmlns="http://www.w3.org/2000/svg">
<path d="M3.15926 10.2739L2.14594 9.2606C1.7326 8.84727 1.7326 8.16726 2.14594 7.75393L3.15926 6.74058C3.3326 6.56725 3.4726 6.22725 3.4726 5.98725V4.5539C3.4726 3.96723 3.9526 3.48725 4.53927 3.48725H5.9726C6.2126 3.48725 6.5526 3.34727 6.72593 3.17393L7.73926 2.16059C8.15259 1.74725 8.8326 1.74725 9.24593 2.16059L10.2593 3.17393C10.4326 3.34727 10.7726 3.48725 11.0126 3.48725H12.4459C13.0326 3.48725 13.5126 3.96723 13.5126 4.5539V5.98725C13.5126 6.22725 13.6526 6.56725 13.8259 6.74058L14.8393 7.75393C15.2526 8.16726 15.2526 8.84727 14.8393 9.2606L13.8259 10.2739C13.6526 10.4473 13.5126 10.7873 13.5126 11.0273V12.4606C13.5126 13.0472 13.0326 13.5273 12.4459 13.5273H11.0126C10.7726 13.5273 10.4326 13.6673 10.2593 13.8406L9.24593 14.8539C8.8326 15.2673 8.15259 15.2673 7.73926 14.8539L6.72593 13.8406C6.5526 13.6673 6.2126 13.5273 5.9726 13.5273H4.53927C3.9526 13.5273 3.4726 13.0472 3.4726 12.4606V11.0273C3.4726 10.7806 3.3326 10.4406 3.15926 10.2739Z" stroke="#454545" stroke-width="0.571429" stroke-linecap="round" stroke-linejoin="round" />
<path d="M6.5 10.5L10.5 6.5" stroke="#454545" stroke-linecap="round" stroke-linejoin="round" />
<path d="M10.1627 10.1663H10.1687" stroke="#454545" stroke-width="1.33333" stroke-linecap="round" stroke-linejoin="round" />
<path d="M6.82967 6.83333H6.83566" stroke="#454545" stroke-width="1.33333" stroke-linecap="round" stroke-linejoin="round" />
</svg>