<svg width="29" height="29" viewBox="0 0 29 29" fill="none" xmlns="http://www.w3.org/2000/svg">
<path d="M2.35352 2.83398H4.38352C5.64352 2.83398 6.63518 3.91898 6.53018 5.16732L5.56185 16.7873C5.39852 18.689 6.90351 20.3223 8.81684 20.3223H21.2419C22.9219 20.3223 24.3919 18.9457 24.5202 17.2773L25.1502 8.52732C25.2902 6.59066 23.8202 5.01565 21.8718 5.01565H6.81019" stroke="#838383" stroke-width="1.75" stroke-miterlimit="10" stroke-linecap="round" stroke-linejoin="round"/>
<path d="M18.9779 26.1667C19.7833 26.1667 20.4362 25.5137 20.4362 24.7083C20.4362 23.9029 19.7833 23.25 18.9779 23.25C18.1724 23.25 17.5195 23.9029 17.5195 24.7083C17.5195 25.5137 18.1724 26.1667 18.9779 26.1667Z" stroke="#838383" stroke-width="1.75" stroke-miterlimit="10" stroke-linecap="round" stroke-linejoin="round"/>
<path d="M9.64388 26.1667C10.4493 26.1667 11.1022 25.5137 11.1022 24.7083C11.1022 23.9029 10.4493 23.25 9.64388 23.25C8.83846 23.25 8.18555 23.9029 8.18555 24.7083C8.18555 25.5137 8.83846 26.1667 9.64388 26.1667Z" stroke="#838383" stroke-width="1.75" stroke-miterlimit="10" stroke-linecap="round" stroke-linejoin="round"/>
<path d="M10.5195 9.83398H24.5195" stroke="#838383" stroke-width="1.75" stroke-miterlimit="10" stroke-linecap="round" stroke-linejoin="round"/>
</svg>
