<svg width="28" height="29" viewBox="0 0 28 29" fill="none" xmlns="http://www.w3.org/2000/svg">
<path d="M19.8333 12.5951H22.1666C24.4999 12.5951 25.6666 11.4284 25.6666 9.09505V6.76172C25.6666 4.42839 24.4999 3.26172 22.1666 3.26172H19.8333C17.4999 3.26172 16.3333 4.42839 16.3333 6.76172V9.09505C16.3333 11.4284 17.4999 12.5951 19.8333 12.5951Z" stroke="#838383" stroke-width="1.75" stroke-miterlimit="10" stroke-linecap="round" stroke-linejoin="round" />
<path d="M5.83325 26.5951H8.16659C10.4999 26.5951 11.6666 25.4284 11.6666 23.0951V20.7617C11.6666 18.4284 10.4999 17.2617 8.16659 17.2617H5.83325C3.49992 17.2617 2.33325 18.4284 2.33325 20.7617V23.0951C2.33325 25.4284 3.49992 26.5951 5.83325 26.5951Z" stroke="#838383" stroke-width="1.75" stroke-miterlimit="10" stroke-linecap="round" stroke-linejoin="round" />
<path d="M6.99992 12.5951C9.57725 12.5951 11.6666 10.5057 11.6666 7.92839C11.6666 5.35106 9.57725 3.26172 6.99992 3.26172C4.42259 3.26172 2.33325 5.35106 2.33325 7.92839C2.33325 10.5057 4.42259 12.5951 6.99992 12.5951Z" stroke="#838383" stroke-width="1.75" stroke-miterlimit="10" stroke-linecap="round" stroke-linejoin="round" />
<path d="M20.9999 26.5951C23.5772 26.5951 25.6666 24.5057 25.6666 21.9284C25.6666 19.3511 23.5772 17.2617 20.9999 17.2617C18.4226 17.2617 16.3333 19.3511 16.3333 21.9284C16.3333 24.5057 18.4226 26.5951 20.9999 26.5951Z" stroke="#838383" stroke-width="1.75" stroke-miterlimit="10" stroke-linecap="round" stroke-linejoin="round" />
</svg>