<svg width="28" height="29" viewBox="0 0 28 29" fill="none" xmlns="http://www.w3.org/2000/svg">
<path d="M7.00016 23.8332L8.75016 19.4582C8.92516 19.0109 9.20711 18.6559 9.596 18.393C9.98489 18.1301 10.4224 17.9991 10.9085 17.9998H12.8335V13.304C9.8585 13.2068 7.36455 12.7693 5.35166 11.9915C3.33877 11.2137 2.33272 10.2998 2.3335 9.24984C2.3335 8.12206 3.471 7.15956 5.746 6.36234C8.021 5.56512 10.7724 5.1665 14.0002 5.1665C17.2474 5.1665 20.0038 5.56512 22.2695 6.36234C24.5352 7.15956 25.6676 8.12206 25.6668 9.24984C25.6668 10.2998 24.6604 11.2137 22.6475 11.9915C20.6346 12.7693 18.1411 13.2068 15.1668 13.304V17.9998H17.0918C17.5585 17.9998 17.9913 18.1313 18.3903 18.3942C18.7893 18.6571 19.0759 19.0117 19.2502 19.4582L21.0002 23.8332H18.6668L17.2668 20.3332H10.7335L9.3335 23.8332H7.00016ZM14.0002 10.9998C15.8863 10.9998 17.6654 10.8346 19.3377 10.504C21.0099 10.1734 22.2349 9.75539 23.0127 9.24984C22.2349 8.74428 21.0099 8.32623 19.3377 7.99567C17.6654 7.66512 15.8863 7.49984 14.0002 7.49984C12.1141 7.49984 10.3349 7.66512 8.66266 7.99567C6.99044 8.32623 5.76544 8.74428 4.98766 9.24984C5.76544 9.75539 6.99044 10.1734 8.66266 10.504C10.3349 10.8346 12.1141 10.9998 14.0002 10.9998Z" fill="#410E44"/>
</svg>
