<svg width="48" height="48" viewBox="0 0 48 48" fill="none" xmlns="http://www.w3.org/2000/svg">
<path d="M7.9856 29.317L4.94563 26.2769C3.70562 25.0369 3.70562 22.9969 4.94563 21.7569L7.9856 18.7169C8.5056 18.1969 8.92561 17.1769 8.92561 16.4569V12.1568C8.92561 10.3968 10.3656 8.95686 12.1256 8.95686H16.4256C17.1456 8.95686 18.1656 8.53691 18.6856 8.01691L21.7256 4.97688C22.9656 3.73687 25.0056 3.73687 26.2456 4.97688L29.2857 8.01691C29.8057 8.53691 30.8256 8.95686 31.5456 8.95686H35.8456C37.6056 8.95686 39.0456 10.3968 39.0456 12.1568V16.4569C39.0456 17.1769 39.4656 18.1969 39.9856 18.7169L43.0256 21.7569C44.2656 22.9969 44.2656 25.0369 43.0256 26.2769L39.9856 29.317C39.4656 29.837 39.0456 30.857 39.0456 31.577V35.8768C39.0456 37.6368 37.6056 39.077 35.8456 39.077H31.5456C30.8256 39.077 29.8057 39.4969 29.2857 40.0169L26.2456 43.057C25.0056 44.297 22.9656 44.297 21.7256 43.057L18.6856 40.0169C18.1656 39.4969 17.1456 39.077 16.4256 39.077H12.1256C10.3656 39.077 8.92561 37.6368 8.92561 35.8768V31.577C8.92561 30.837 8.5056 29.817 7.9856 29.317Z" fill="url(#paint0_linear_5073_52397)"/>
<path d="M18.0078 30L30.0078 18" stroke="#FAF5FF" strokeWidth="3" strokeLinecap="round" strokeLinejoin="round"/>
<path d="M28.9968 29H29.0148" stroke="white" strokeWidth="4" strokeLinecap="round" strokeLinejoin="round"/>
<path d="M18.9968 19H19.0148" stroke="white" strokeWidth="4" strokeLinecap="round" strokeLinejoin="round"/>
<defs>
<linearGradient id="paint0_linear_5073_52397" x1="16.0327" y1="39.5271" x2="39.6258" y2="8.43937" gradientUnits="userSpaceOnUse">
<stop stop-color="#CD99FE"/>
<stop offset="1" stop-color="#410E44"/>
</linearGradient>
</defs>
</svg>
