<svg width="29" height="28" viewBox="0 0 29 28" fill="none" xmlns="http://www.w3.org/2000/svg">
<path d="M9.35238 27.1557H9.35232C9.30051 27.1557 9.24446 27.1575 9.1841 27.1595L9.18199 27.1596C9.12156 27.1616 9.05726 27.1636 8.993 27.1637C8.86607 27.1639 8.72925 27.1566 8.60872 27.1208C7.81029 26.8837 7.07003 26.2484 7.20071 25.2898L7.20087 25.2887L7.20457 25.2635C7.22543 25.112 7.27222 24.9915 7.33923 24.8734L7.03943 24.6787L7.0358 24.6764L7.03585 24.6763C3.71836 22.3425 1.52003 18.1738 1.30901 14.1292L1.30872 14.1237H1.30886L1.3013 12.4363L1.3013 12.4357C1.30143 12.3067 1.3069 12.1499 1.36368 12.0178C1.39314 11.9493 1.43726 11.8849 1.50278 11.8341C1.56834 11.7833 1.64935 11.7507 1.74561 11.7368L1.74755 11.7365L1.74755 11.7365L1.76804 11.7339C1.76835 11.7339 1.76866 11.7338 1.76897 11.7338C1.95349 11.7074 2.15975 11.7123 2.3484 11.7168C2.39773 11.718 2.44587 11.7191 2.49209 11.7197C2.50133 11.6954 2.51019 11.669 2.51957 11.6402C2.52157 11.634 2.5236 11.6277 2.52567 11.6213C2.54142 11.5724 2.5594 11.5167 2.58256 11.4641L2.58257 11.464C3.01113 10.4906 3.8719 9.65909 4.81979 9.21196C4.93014 9.15991 5.02245 9.12773 5.09852 9.10246C5.10866 9.09909 5.11834 9.09589 5.1276 9.09283C5.19057 9.07204 5.23411 9.05766 5.27178 9.03898C5.30999 9.02004 5.33815 8.99827 5.36439 8.96231C5.39259 8.92365 5.4219 8.86395 5.4532 8.76372L9.35238 27.1557ZM9.35238 27.1557L14.7217 27.1557L19.7082 27.1555H19.7085C20.3132 27.1541 20.8554 27.1357 21.3567 26.6305L21.2739 26.5484L21.3567 26.6305C21.6457 26.3393 21.7945 26.045 21.8362 25.7275C21.8737 25.4419 21.8229 25.1477 21.7266 24.8347C22.2637 24.5349 22.7353 24.1485 23.185 23.746C25.7973 21.4082 27.5072 17.7753 27.7345 14.2676C27.7563 13.9308 27.7523 13.5867 27.7484 13.2496C27.7469 13.1193 27.7454 12.9901 27.7454 12.8627V12.8626L27.7452 12.4093V12.4092C27.7449 12.1721 27.7181 11.9782 27.5826 11.858C27.5151 11.7982 27.4309 11.7658 27.3372 11.7479C27.2443 11.7301 27.1341 11.7251 27.0071 11.726L27.0065 11.726L26.5956 11.7307C26.5902 11.7146 26.5853 11.6968 26.5806 11.6789C26.5798 11.6759 26.579 11.6726 26.5781 11.6692C26.5745 11.6551 26.5701 11.6382 26.5664 11.6269L26.5665 11.6269L26.565 11.6229L26.4777 11.3853L26.4774 11.3843C26.0913 10.3636 25.3654 9.60907 24.3565 9.21124L24.3565 9.21121L24.354 9.21028L23.8862 9.03819C23.8115 9.00822 23.8047 8.99709 23.8036 8.99529L23.8035 8.99513C23.8017 8.99239 23.7977 8.98523 23.7908 8.96269C23.7866 8.94874 23.7829 8.93493 23.7782 8.91758C23.7744 8.90357 23.7701 8.88725 23.7643 8.86667L23.7639 8.86552L23.6285 8.40281L23.6285 8.40279L23.6275 8.39965C23.2277 7.16461 22.4571 6.18211 21.2239 5.66308C21.0978 5.61003 21.0054 5.58196 20.9365 5.56246C20.927 5.55975 20.9182 5.55728 20.9102 5.55501C20.8547 5.53938 20.8337 5.53347 20.8179 5.52453L20.8174 5.52428C20.8117 5.52107 20.8026 5.51596 20.7857 5.47932C20.7658 5.43621 20.7438 5.36856 20.707 5.24933C20.3172 3.9863 19.422 2.99545 18.0974 2.65331L18.0975 2.653L18.089 2.65145L17.6419 2.57088C16.9254 1.29952 15.7813 0.65006 14.3363 0.709323L14.3363 0.709083L14.3288 0.709869C13.1475 0.834493 12.061 1.57667 11.5407 2.65048L11.5405 2.65088L11.403 2.93733C11.3892 2.96209 11.3615 2.98783 11.3099 3.01221C11.2571 3.03716 11.1889 3.05612 11.109 3.07169C11.0381 3.08553 10.9637 3.0957 10.8883 3.10601C10.8792 3.10726 10.87 3.10851 10.8608 3.10978C10.7786 3.12108 10.6936 3.13332 10.6216 3.15162C9.58697 3.41442 8.69756 4.16525 8.22832 5.11645L8.22832 5.11645C8.19792 5.17808 8.1702 5.23467 8.14464 5.28688C7.99716 5.58797 7.92121 5.74304 7.81547 5.87476C7.69355 6.02665 7.53055 6.1483 7.14967 6.41453L7.21651 6.51015L9.35238 27.1557ZM14.439 1.80284L14.4381 1.80294C13.5429 1.90146 12.9588 2.44213 12.4887 3.191C12.4886 3.19119 12.4885 3.19138 12.4884 3.19157L12.242 3.59492L12.2418 3.59515C12.1263 3.78327 12.0289 3.90589 11.8919 3.98424C11.7594 4.06012 11.6008 4.08721 11.3899 4.11892C10.4775 4.25605 9.78913 4.65485 9.31362 5.46967L8.99683 6.0769L8.99509 6.08022L8.99504 6.08019C8.69358 6.61537 8.27702 6.94329 7.87523 7.25957C7.82525 7.29891 7.77551 7.33807 7.72625 7.37742C7.27921 7.73452 6.85678 8.11661 6.5841 8.81168L6.5841 8.81168C6.53744 8.93059 6.50179 9.03336 6.46928 9.12707C6.45751 9.161 6.44615 9.19373 6.43483 9.22562C6.39303 9.34337 6.3515 9.45031 6.29321 9.54771C6.17196 9.7503 5.98942 9.89332 5.63414 10.0538C5.63391 10.0539 5.63369 10.054 5.63346 10.0541L5.11594 10.2956C4.53383 10.5967 3.97803 11.1328 3.69187 11.7246L14.439 1.80284ZM14.439 1.80284C15.2022 1.71279 16.0508 2.14861 16.4754 2.77911C16.5931 2.95388 16.6616 3.08247 16.7137 3.18173C16.7171 3.18829 16.7205 3.19481 16.7239 3.20128C16.7694 3.2883 16.8109 3.36775 16.8703 3.42961C16.9397 3.502 17.0257 3.54435 17.1468 3.57979C17.2651 3.61445 17.4301 3.64603 17.6661 3.6891C18.5884 3.85737 19.2898 4.51955 19.6055 5.39953C19.6585 5.54744 19.6966 5.66477 19.7291 5.76481C19.7469 5.81968 19.7631 5.86935 19.779 5.91602C19.8221 6.04174 19.8635 6.1438 19.9324 6.22842C20.0032 6.31519 20.0948 6.37409 20.2195 6.43263C20.3271 6.48316 20.4693 6.53776 20.6573 6.60991C20.6838 6.62007 20.7111 6.63057 20.7394 6.64146C21.5945 6.97046 22.1963 7.67982 22.5022 8.53716L22.6492 9.01253C22.6563 9.03878 22.6634 9.06679 22.6709 9.09588C22.691 9.17457 22.7131 9.2612 22.7408 9.34251C22.7799 9.45709 22.8343 9.57562 22.9231 9.67488C23.2385 10.0275 23.582 10.1401 23.9034 10.2454C23.9916 10.2743 24.0781 10.3027 24.1619 10.3353C24.3602 10.4125 24.5577 10.5154 24.7581 10.7029C24.9595 10.8913 25.1684 11.1696 25.382 11.6031C25.3942 11.6281 25.4047 11.658 25.4179 11.6959C25.4192 11.6994 25.4204 11.703 25.4217 11.7066L14.7148 11.7243H14.7146L3.75318 11.7237L14.439 1.80284ZM26.4936 15.4697L26.4937 15.4697L26.6359 14.5095L2.43692 14.507C2.44697 14.6458 2.46479 14.8315 2.48785 15.0192C2.51332 15.2266 2.54437 15.4295 2.57687 15.5724L26.1986 15.5761C26.1987 15.5761 26.1988 15.5761 26.1989 15.5761H26.1992L26.1991 15.6927C26.2755 15.6924 26.3367 15.6979 26.3861 15.7023L26.4936 15.4697ZM26.4936 15.4697L26.4932 15.4732C26.4856 15.5377 26.4783 15.5725 26.472 15.5911L26.4936 15.4697ZM8.47492 25.1354L8.45519 25.1354L8.45518 25.0187C7.9526 25.1832 8.14505 25.9071 8.62061 26.1233C8.72189 26.1694 8.84592 26.1779 8.95606 26.1815M8.47492 25.1354C8.38782 25.1679 8.33621 25.2205 8.30734 25.2807C8.27543 25.3473 8.26683 25.4334 8.28559 25.5292C8.32363 25.7236 8.46795 25.9258 8.6689 26.0171L8.66894 26.0171C8.74606 26.0522 8.84744 26.0612 8.95798 26.0648M8.47492 25.1354L20.2444 25.1343L8.47492 25.1354ZM8.95798 26.0648H8.95607L8.95606 26.1815M8.95798 26.0648C8.95861 26.0649 8.95925 26.0649 8.95988 26.0649L8.95606 26.1815M8.95798 26.0648L20.1178 26.0653C20.1982 26.0619 20.2661 26.0454 20.3465 26.0151L20.4229 25.979C20.59 25.8728 20.72 25.6712 20.7587 25.486C20.778 25.3933 20.7721 25.3161 20.7481 25.2615C20.7262 25.2117 20.6857 25.1714 20.6092 25.1517C20.6092 25.1517 20.6092 25.1517 20.6092 25.1517L20.6381 25.0387C20.5415 25.0139 20.4274 25.0155 20.3218 25.017L8.95606 26.1815M2.38156 12.8055L26.6858 12.8033L26.6762 13.4418C26.6586 13.4409 26.6407 13.439 26.6185 13.4369C26.5977 13.4349 26.5723 13.4327 26.5473 13.4326H26.5472L2.38912 13.4271C2.38676 13.3882 2.38714 13.3462 2.38755 13.3007C2.38777 13.2766 2.388 13.2514 2.38783 13.2252L2.38781 13.2242L2.38156 12.8055ZM8.3546 24.0503V24.0502L8.35012 24.0504C8.3331 24.051 8.31743 24.0517 8.30288 24.0524C8.19267 24.0573 8.14722 24.0594 8.07305 24.0154C5.61407 22.5567 3.78319 19.8629 2.9793 17.1536C2.97926 17.1534 2.97921 17.1533 2.97916 17.1531L2.85622 16.7252C2.85227 16.7096 2.84969 16.6949 2.84653 16.6764L5.33579 16.6554H5.33633L26.2287 16.6596C26.2268 16.669 26.2249 16.6778 26.222 16.6883L25.766 18.0711C25.0501 19.9072 23.9347 21.5622 22.4902 22.9006C22.3376 23.0359 22.0371 23.2981 21.7262 23.5403C21.5704 23.6617 21.4133 23.777 21.2718 23.8685C21.1277 23.9617 21.009 24.0241 20.9276 24.0475C20.8991 24.0557 20.8587 24.0582 20.8046 24.0565C20.7811 24.0558 20.7573 24.0545 20.7324 24.053L20.7239 24.0525C20.6967 24.051 20.6676 24.0494 20.6399 24.0491H20.6387L8.3546 24.0503Z" fill="#410E44" stroke="#410E44" stroke-width="0.233333"/>
<path d="M19.4861 7.30654L19.4708 7.30532C19.3924 7.29905 19.2846 7.25588 19.1804 7.20546C19.0704 7.15223 18.9459 7.08152 18.8273 7.00528C18.7091 6.92922 18.5939 6.84584 18.5037 6.76672C18.4586 6.72724 18.4178 6.68705 18.3855 6.6478L19.4861 7.30654ZM19.4861 7.30654L19.5013 7.30376M19.4861 7.30654L19.5013 7.30376M19.5013 7.30376C19.6464 7.27703 19.7732 7.22902 19.876 7.0836L19.876 7.08359C19.982 6.93365 19.9876 6.76791 19.9344 6.61567C19.8827 6.46797 19.776 6.33134 19.6516 6.21759C19.5262 6.10289 19.3759 6.00496 19.2265 5.93682C19.0791 5.86958 18.9221 5.82661 18.7853 5.83379L18.7763 5.83426M19.5013 7.30376L18.7763 5.83426M18.7763 5.83426L18.7675 5.8361M18.7763 5.83426L18.7675 5.8361M18.7675 5.8361C18.6164 5.86767 18.4806 5.94728 18.3926 6.06691C18.3031 6.18865 18.2683 6.34519 18.3112 6.51443L18.7675 5.8361ZM18.9242 10.0213L18.9241 10.0209C18.4163 10.1373 18.0691 9.84063 17.7645 9.57197L17.7645 9.57197C17.5841 9.4129 17.4504 9.20994 17.4573 9.00453C17.4649 8.77997 17.6341 8.61498 17.92 8.53126L17.9322 8.52766L17.945 8.52681C18.0542 8.5195 18.1441 8.53207 18.2214 8.56194C18.2989 8.59186 18.3562 8.63624 18.4032 8.68097C18.4262 8.70287 18.4475 8.72557 18.4666 8.74613L18.4712 8.7511C18.4892 8.77038 18.5054 8.78779 18.5225 8.80473L18.9242 10.0213ZM18.9242 10.0213L18.9336 10.0183M18.9242 10.0213L18.9336 10.0183M18.9336 10.0183C19.2036 9.93201 19.36 9.71748 19.3773 9.49331C19.3948 9.26683 19.268 9.04252 19.0062 8.95702C18.9387 8.93501 18.8658 8.92913 18.8091 8.92458C18.8016 8.92398 18.7945 8.9234 18.7876 8.92281C18.7213 8.91711 18.6767 8.91024 18.6415 8.89297L18.9336 10.0183ZM9.51262 10.9701L9.50443 10.9695C9.32554 10.957 9.14282 10.8857 9.02919 10.7568C8.97104 10.6909 8.93052 10.6089 8.92217 10.5141L9.51262 10.9701ZM9.51262 10.9701L9.5208 10.9695M9.51262 10.9701L9.5208 10.9695M9.5208 10.9695C9.72658 10.9549 9.90236 10.9137 10.0631 10.8332C10.2237 10.7527 10.3625 10.6363 10.499 10.4806L10.499 10.4806C10.5061 10.4725 10.5138 10.4638 10.5219 10.4546C10.5757 10.3938 10.6501 10.3097 10.7116 10.2199C10.7791 10.1213 10.8508 9.98875 10.8394 9.85377M9.5208 10.9695L10.2537 9.36M10.2537 9.36L10.2676 9.35943C10.4153 9.35337 10.5537 9.38501 10.6602 9.47279C10.7679 9.56166 10.8258 9.69392 10.8394 9.85377M10.2537 9.36L10.2403 9.36381M10.2537 9.36L10.2403 9.36381M10.8394 9.85377L10.7231 9.86362L10.8394 9.85375C10.8394 9.85376 10.8394 9.85376 10.8394 9.85377ZM10.2403 9.36381C10.0789 9.40985 9.97074 9.495 9.87909 9.58114C9.85227 9.60635 9.82785 9.63048 9.80437 9.65368C9.74453 9.7128 9.69081 9.76587 9.61922 9.81526L10.2403 9.36381ZM12.2517 5.6535L12.2622 5.65327L12.2725 5.65115C12.4809 5.60847 12.6373 5.52018 12.7365 5.40124C12.8365 5.2814 12.8729 5.13659 12.8486 4.99828C12.7995 4.71863 12.5189 4.50875 12.1353 4.53618L12.1353 4.53605L12.1299 4.5367C11.7156 4.58592 11.4682 4.84879 11.4945 5.14506C11.5208 5.44145 11.811 5.66307 12.2517 5.6535ZM15.5227 6.17202L15.538 6.17158L15.5527 6.1672C15.6946 6.12487 15.8153 6.01955 15.8889 5.89401C15.9628 5.76803 15.9969 5.60775 15.9423 5.45406L15.9423 5.45403C15.919 5.38872 15.8682 5.32611 15.817 5.27353C15.7631 5.21816 15.697 5.16218 15.6291 5.11053C15.4946 5.0083 15.3407 4.91409 15.2386 4.87046L15.2386 4.8703L15.2327 4.86814L15.1693 4.84499L15.1693 4.84494L15.1659 4.84382C15.0912 4.81914 15.0101 4.81253 14.9373 4.81197C14.8726 4.81148 14.8077 4.81585 14.7532 4.81952C14.746 4.82 14.739 4.82047 14.7322 4.82092L14.7199 4.82173L14.708 4.8251C14.5795 4.86158 14.454 4.93118 14.3725 5.03888C14.2871 5.15173 14.2578 5.29686 14.3118 5.4573L14.4224 5.42008L14.3118 5.45731C14.3984 5.71445 14.5898 5.81374 14.7667 5.90548C14.7759 5.91028 14.7852 5.91506 14.7943 5.91985L14.7954 5.92042L15.0871 6.06868L15.0871 6.06875L15.0909 6.07053C15.2239 6.13217 15.3586 6.1768 15.5227 6.17202ZM9.64454 7.66009L9.65478 7.66101L9.66503 7.66012C10.0917 7.62319 10.3294 7.34094 10.321 7.04469C10.3168 6.89999 10.2523 6.75972 10.1302 6.66175C10.0079 6.56364 9.83708 6.51486 9.63057 6.53304L9.63057 6.53303L9.62936 6.53315C9.21178 6.57433 8.93985 6.80713 8.94166 7.09927C8.94348 7.39185 9.2189 7.62189 9.64454 7.66009ZM12.3493 8.0435L12.3566 8.04308L12.3638 8.04174C12.745 7.97111 12.9614 7.6965 12.9455 7.41576C12.9377 7.27683 12.8716 7.14494 12.7503 7.05301C12.6295 6.96156 12.4625 6.91557 12.2595 6.92809L12.2595 6.9277L12.2501 6.92907C12.0281 6.96112 11.8626 7.04216 11.7584 7.15991C11.6526 7.27943 11.6193 7.42683 11.6468 7.56623C11.701 7.84162 11.982 8.06481 12.3493 8.0435ZM15.9756 8.52266L15.9837 8.52197L15.9916 8.52016C16.3837 8.43062 16.5871 8.14306 16.5234 7.85422C16.4603 7.56807 16.1552 7.37307 15.7209 7.41929L15.7208 7.41871L15.7093 7.42111C15.5041 7.46403 15.3505 7.5533 15.2568 7.67497C15.1621 7.79803 15.1358 7.94582 15.1733 8.0841C15.2484 8.36134 15.5581 8.55851 15.9756 8.52266ZM7.78052 9.50104L7.78051 9.50143L7.79015 9.50085C8.2946 9.47041 8.60513 9.19175 8.63358 8.87888C8.64776 8.72299 8.58746 8.57073 8.45616 8.46635C8.32651 8.36329 8.13908 8.31524 7.90912 8.33646L7.90191 8.33712L7.89557 8.33852C7.39106 8.40246 7.07894 8.64951 7.06332 8.95174C7.0555 9.10291 7.12736 9.24224 7.25513 9.34081C7.38159 9.43837 7.56132 9.49613 7.78052 9.50104ZM13.671 9.75485L13.6811 9.75464L14.1563 9.47838C14.1563 9.47838 14.1563 9.47837 14.1563 9.47837C14.2375 9.35988 14.2757 9.24007 14.2669 9.12438C14.2581 9.00793 14.2027 8.91054 14.1245 8.83617C13.9723 8.69153 13.727 8.62484 13.4944 8.63747L13.4944 8.63692L13.4832 8.63862C13.2688 8.67118 13.1069 8.75137 13.0056 8.86799C12.9026 8.98672 12.8713 9.1336 12.9044 9.27318C12.9697 9.54921 13.2691 9.76304 13.671 9.75485ZM22.5299 11.1518L22.5397 11.1491L22.5489 11.1447C22.6635 11.0903 22.7772 11.0035 22.8518 10.8901C22.9283 10.7738 22.9642 10.6272 22.9112 10.4691L22.9061 10.4535L22.9061 10.4534L22.9052 10.4509C22.8808 10.3822 22.8323 10.3248 22.7843 10.2784C22.7351 10.2309 22.6764 10.1855 22.6205 10.1434C22.6097 10.1353 22.5991 10.1274 22.5886 10.1195C22.4828 10.0402 22.3936 9.97327 22.343 9.90414L22.2488 9.973L22.343 9.90413C22.3111 9.86048 22.2843 9.82019 22.2578 9.78019C22.2464 9.76301 22.235 9.74589 22.2233 9.72858C22.1861 9.67364 22.1457 9.61757 22.0965 9.56993C21.9885 9.46546 21.853 9.4159 21.6479 9.42908L21.6341 9.42997L21.6209 9.43405C21.5018 9.47088 21.4077 9.53241 21.342 9.61675C21.2765 9.70091 21.2453 9.79999 21.2389 9.90201C21.2264 10.1019 21.3076 10.3226 21.4283 10.5159C21.5503 10.7112 21.7218 10.8934 21.9106 11.0159C22.0973 11.1369 22.3184 11.21 22.5299 11.1518ZM6.35465 11.2206L6.36745 11.2207L6.37996 11.218C6.76359 11.1347 6.98856 10.8873 6.95884 10.6089C6.92947 10.3336 6.66073 10.1306 6.27209 10.1148L6.2641 10.1144L6.25615 10.1152C6.04088 10.136 5.87627 10.2075 5.76999 10.3186C5.662 10.4314 5.62412 10.5755 5.64804 10.7146C5.69542 10.99 5.97266 11.2187 6.35465 11.2206ZM9.31493 9.96586C9.20204 10.0202 9.06889 10.0954 8.99426 10.2247L9.48493 9.8881C9.46559 9.89709 9.44335 9.90709 9.42011 9.91754C9.38512 9.93326 9.34788 9.95 9.31493 9.96586Z" fill="#410E44" stroke="#410E44" stroke-width="0.233333"/>
</svg>
