<svg width="17" height="16" viewBox="0 0 17 16" fill="none" xmlns="http://www.w3.org/2000/svg">
<path d="M6.35475 7.74634C6.33475 7.74634 6.32142 7.74634 6.30142 7.74634C6.26809 7.73967 6.22142 7.73967 6.18142 7.74634C4.24809 7.68634 2.78809 6.16634 2.78809 4.29301C2.78809 2.38634 4.34142 0.833008 6.24809 0.833008C8.15475 0.833008 9.70809 2.38634 9.70809 4.29301C9.70142 6.16634 8.23475 7.68634 6.37475 7.74634C6.36809 7.74634 6.36142 7.74634 6.35475 7.74634ZM6.24809 1.83301C4.89475 1.83301 3.78809 2.93967 3.78809 4.29301C3.78809 5.62634 4.82809 6.69967 6.15475 6.74634C6.19475 6.73967 6.28142 6.73967 6.36809 6.74634C7.67475 6.68634 8.70142 5.61301 8.70809 4.29301C8.70809 2.93967 7.60142 1.83301 6.24809 1.83301Z" fill="#262626" />
<path d="M11.2746 7.83366C11.2546 7.83366 11.2346 7.83366 11.2146 7.82699C10.9413 7.85366 10.6613 7.66033 10.6346 7.38699C10.608 7.11366 10.7746 6.86699 11.048 6.83366C11.128 6.82699 11.2146 6.82699 11.288 6.82699C12.2613 6.77366 13.0213 5.97366 13.0213 4.99366C13.0213 3.98033 12.2013 3.16033 11.188 3.16033C10.9146 3.16699 10.688 2.94033 10.688 2.66699C10.688 2.39366 10.9146 2.16699 11.188 2.16699C12.748 2.16699 14.0213 3.44033 14.0213 5.00033C14.0213 6.53366 12.8213 7.77366 11.2946 7.83366C11.288 7.83366 11.2813 7.83366 11.2746 7.83366Z" fill="#262626" />
<path d="M6.36112 15.0337C5.05445 15.0337 3.74112 14.7003 2.74779 14.0337C1.82112 13.4203 1.31445 12.5803 1.31445 11.667C1.31445 10.7537 1.82112 9.90699 2.74779 9.28699C4.74779 7.96033 7.98779 7.96033 9.97445 9.28699C10.8945 9.90033 11.4078 10.7403 11.4078 11.6537C11.4078 12.567 10.9011 13.4137 9.97445 14.0337C8.97445 14.7003 7.66779 15.0337 6.36112 15.0337ZM3.30112 10.127C2.66112 10.5537 2.31445 11.1003 2.31445 11.6737C2.31445 12.2403 2.66779 12.787 3.30112 13.207C4.96112 14.3203 7.76112 14.3203 9.42112 13.207C10.0611 12.7803 10.4078 12.2337 10.4078 11.6603C10.4078 11.0937 10.0545 10.547 9.42112 10.127C7.76112 9.02033 4.96112 9.02033 3.30112 10.127Z" fill="#262626" />
<path d="M12.4748 13.8333C12.2415 13.8333 12.0348 13.6733 11.9882 13.4333C11.9348 13.16 12.1082 12.9 12.3748 12.84C12.7948 12.7533 13.1815 12.5867 13.4815 12.3533C13.8615 12.0667 14.0682 11.7067 14.0682 11.3267C14.0682 10.9467 13.8615 10.5867 13.4882 10.3067C13.1948 10.08 12.8282 9.92001 12.3948 9.82001C12.1282 9.76001 11.9548 9.49335 12.0148 9.22001C12.0748 8.95335 12.3415 8.78001 12.6148 8.84001C13.1882 8.96668 13.6882 9.19335 14.0948 9.50668C14.7148 9.97335 15.0682 10.6333 15.0682 11.3267C15.0682 12.02 14.7082 12.68 14.0882 13.1533C13.6748 13.4733 13.1548 13.7067 12.5815 13.82C12.5415 13.8333 12.5082 13.8333 12.4748 13.8333Z" fill="#262626" />
</svg>