<svg width="23" height="22" viewBox="0 0 23 22" fill="none" xmlns="http://www.w3.org/2000/svg">
<path d="M20.5605 5.95898H15.0605" stroke="#652669" strokeWidth="1.5" strokeMiterlimit="10" strokeLinecap="round" strokeLinejoin="round"/>
<path d="M5.89518 5.95898H2.22852" stroke="#652669" strokeWidth="1.5" strokeMiterlimit="10" strokeLinecap="round" strokeLinejoin="round"/>
<path d="M9.56185 9.16667C11.3338 9.16667 12.7702 7.73025 12.7702 5.95833C12.7702 4.18642 11.3338 2.75 9.56185 2.75C7.78994 2.75 6.35352 4.18642 6.35352 5.95833C6.35352 7.73025 7.78994 9.16667 9.56185 9.16667Z" stroke="#652669" strokeWidth="1.5" strokeMiterlimit="10" strokeLinecap="round" strokeLinejoin="round"/>
<path d="M20.5612 16.041H16.8945" stroke="#652669" strokeWidth="1.5" strokeMiterlimit="10" strokeLinecap="round" strokeLinejoin="round"/>
<path d="M7.72852 16.041H2.22852" stroke="#652669" strokeWidth="1.5" strokeMiterlimit="10" strokeLinecap="round" strokeLinejoin="round"/>
<path d="M13.2279 19.2507C14.9998 19.2507 16.4362 17.8142 16.4362 16.0423C16.4362 14.2704 14.9998 12.834 13.2279 12.834C11.456 12.834 10.0195 14.2704 10.0195 16.0423C10.0195 17.8142 11.456 19.2507 13.2279 19.2507Z" stroke="#652669" strokeWidth="1.5" strokeMiterlimit="10" strokeLinecap="round" strokeLinejoin="round"/>
</svg>
