<svg width="13" height="14" viewBox="0 0 13 14" fill="none" xmlns="http://www.w3.org/2000/svg">
<path d="M11.9167 7.00002V9.70835C11.9167 11.3334 10.8333 12.4167 9.20833 12.4167H3.79167C2.16667 12.4167 1.08333 11.3334 1.08333 9.70835V7.00002C1.08333 5.52669 1.97167 4.49752 3.35292 4.32419C3.49375 4.30252 3.64 4.29169 3.79167 4.29169H9.20833C9.34917 4.29169 9.48458 4.2971 9.61458 4.31876C11.0121 4.48126 11.9167 5.51585 11.9167 7.00002Z" stroke="white" strokeWidth="1.5" strokeLinecap="round" strokeLinejoin="round"/>
<path d="M9.61535 4.31873C9.48535 4.29706 9.34993 4.29165 9.2091 4.29165H3.79243C3.64076 4.29165 3.49451 4.30248 3.35368 4.32415C3.42951 4.17248 3.53785 4.03165 3.66785 3.90165L5.42826 2.13581C6.17035 1.39915 7.37284 1.39915 8.11493 2.13581L9.06284 3.09457C9.40951 3.43582 9.59368 3.86915 9.61535 4.31873Z" stroke="white" strokeWidth="1.5" strokeLinecap="round" strokeLinejoin="round"/>
<path d="M11.9167 7.27081H10.2917C9.69583 7.27081 9.20833 7.75831 9.20833 8.35415C9.20833 8.94998 9.69583 9.43748 10.2917 9.43748H11.9167" stroke="white" strokeWidth="1.5" strokeLinecap="round" strokeLinejoin="round"/>
</svg>
