<svg width="16" height="18" viewBox="0 0 16 18" fill="none" xmlns="http://www.w3.org/2000/svg">
<path d="M15.1834 5.58622C14.3084 1.73622 10.95 0.00288391 8.00002 0.00288391C8.00002 0.00288391 8.00002 0.00288391 7.99168 0.00288391C5.05002 0.00288391 1.68335 1.72788 0.808352 5.57788C-0.166648 9.87788 2.46669 13.5195 4.85002 15.8112C5.73335 16.6612 6.86668 17.0862 8.00002 17.0862C9.13335 17.0862 10.2667 16.6612 11.1417 15.8112C13.525 13.5195 16.1584 9.88622 15.1834 5.58622ZM8.00002 9.76122C6.55002 9.76122 5.37502 8.58622 5.37502 7.13622C5.37502 5.68622 6.55002 4.51122 8.00002 4.51122C9.45002 4.51122 10.625 5.68622 10.625 7.13622C10.625 8.58622 9.45002 9.76122 8.00002 9.76122Z" fill="#6200DD"/>
</svg>
