<svg width="20" height="21" viewBox="0 0 20 21" fill="none" xmlns="http://www.w3.org/2000/svg">
<path d="M9.99935 12.9619C11.841 12.9619 13.3327 11.4702 13.3327 9.62858V5.04525C13.3327 3.20358 11.841 1.71191 9.99935 1.71191C8.15768 1.71191 6.66602 3.20358 6.66602 5.04525V9.62858C6.66602 11.4702 8.15768 12.9619 9.99935 12.9619Z" stroke="#DB8AE8" strokeWidth="1.5" strokeLinecap="round" strokeLinejoin="round"/>
<path d="M3.625 8.08691V9.50358C3.625 13.0202 6.48333 15.8786 10 15.8786C13.5167 15.8786 16.375 13.0202 16.375 9.50358V8.08691" stroke="#DB8AE8" strokeWidth="1.5" strokeLinecap="round" strokeLinejoin="round"/>
<path d="M8.8418 5.40352C9.5918 5.12852 10.4085 5.12852 11.1585 5.40352" stroke="#DB8AE8" strokeWidth="1.5" strokeLinecap="round" strokeLinejoin="round"/>
<path d="M9.33398 7.16953C9.77565 7.05286 10.234 7.05286 10.6757 7.16953" stroke="#DB8AE8" strokeWidth="1.5" strokeLinecap="round" strokeLinejoin="round"/>
<path d="M10 15.8779V18.3779" stroke="#DB8AE8" strokeWidth="1.5" strokeLinecap="round" strokeLinejoin="round"/>
</svg>
