<svg width="17" height="16" viewBox="0 0 17 16" fill="none" xmlns="http://www.w3.org/2000/svg">
<path fill-rule="evenodd" clip-rule="evenodd" d="M10.6997 13.2205L13.7197 10.2005C14.3531 9.56719 14.6931 8.69385 14.6531 7.79385L14.4931 4.46052C14.4264 3.13385 13.3664 2.07385 12.0331 2.01385L8.69975 1.85385C7.80641 1.80719 6.93308 2.14719 6.29975 2.78052L3.27308 5.79385C2.03308 7.04052 2.03308 9.05385 3.27308 10.2939L6.19975 13.2205C7.44641 14.4605 9.45975 14.4605 10.6997 13.2205ZM8.50065 6.33268C8.50065 7.25316 9.24684 7.99935 10.1673 7.99935C11.0878 7.99935 11.834 7.25316 11.834 6.33268C11.834 5.41221 11.0878 4.66602 10.1673 4.66602C9.24684 4.66602 8.50065 5.41221 8.50065 6.33268Z" fill="white"/>
</svg>
