<svg width="14" height="14" viewBox="0 0 14 14" fill="none" xmlns="http://www.w3.org/2000/svg">
<circle cx="7" cy="7" r="7" fill="#DB8AE8"/>
<path d="M7.67343 3.69698L8.35787 5.06586C8.4512 5.25642 8.70009 5.4392 8.91009 5.4742L10.1506 5.68031C10.944 5.81253 11.1306 6.38809 10.559 6.95586L9.59454 7.92031C9.4312 8.08364 9.34176 8.39864 9.39232 8.6242L9.66843 9.81809C9.8862 10.7631 9.38454 11.1286 8.54843 10.6348L7.38565 9.94642C7.17565 9.82198 6.82954 9.82198 6.61565 9.94642L5.45287 10.6348C4.62065 11.1286 4.11509 10.7592 4.33287 9.81809L4.60898 8.6242C4.65954 8.39864 4.57009 8.08364 4.40676 7.92031L3.44232 6.95586C2.87454 6.38809 3.05732 5.81253 3.85065 5.68031L5.0912 5.4742C5.29732 5.4392 5.5462 5.25642 5.63954 5.06586L6.32398 3.69698C6.69732 2.9542 7.30398 2.9542 7.67343 3.69698Z" fill="white"/>
</svg>
