<svg width="19" height="20" viewBox="0 0 19 20" fill="none" xmlns="http://www.w3.org/2000/svg">
    <path fill-rule="evenodd" clipRule="evenodd" d="M4.08505 1.20287C7.56109 0.817795 11.069 0.817795 14.5451 1.20287C16.4441 1.41487 17.9751 2.90987 18.1981 4.81587C18.61 8.34054 18.61 11.9012 18.1981 15.4259C17.9751 17.3319 16.4441 18.8269 14.5461 19.0399C11.0697 19.425 7.56143 19.425 4.08506 19.0399C2.18606 18.8269 0.65506 17.3319 0.43206 15.4269C0.0200424 11.9019 0.0200424 8.34087 0.43206 4.81587C0.65506 2.90987 2.18606 1.41487 4.08506 1.20287ZM14.3151 4.12087C14.0498 4.12087 13.7955 4.22622 13.608 4.41376C13.4204 4.6013 13.3151 4.85565 13.3151 5.12087C13.3151 5.38608 13.4204 5.64044 13.608 5.82797C13.7955 6.01551 14.0498 6.12087 14.3151 6.12087C14.5803 6.12087 14.8346 6.01551 15.0222 5.82797C15.2097 5.64044 15.3151 5.38608 15.3151 5.12087C15.3151 4.85565 15.2097 4.6013 15.0222 4.41376C14.8346 4.22622 14.5803 4.12087 14.3151 4.12087ZM4.56506 10.1209C4.56506 8.86109 5.06551 7.65291 5.9563 6.76211C6.8471 5.87131 8.05528 5.37087 9.31506 5.37087C10.5748 5.37087 11.783 5.87131 12.6738 6.76211C13.5646 7.65291 14.0651 8.86109 14.0651 10.1209C14.0651 11.3806 13.5646 12.5888 12.6738 13.4796C11.783 14.3704 10.5748 14.8709 9.31506 14.8709C8.05528 14.8709 6.8471 14.3704 5.9563 13.4796C5.06551 12.5888 4.56506 11.3806 4.56506 10.1209Z" fill="#211332" />
</svg>
