<svg width="20" height="21" viewBox="0 0 20 21" fill="none" xmlns="http://www.w3.org/2000/svg">
<path d="M17.1829 7.08724C16.3079 3.23724 12.9496 1.50391 9.99959 1.50391C9.99959 1.50391 9.99959 1.50391 9.99126 1.50391C7.04959 1.50391 3.68292 3.22891 2.80792 7.07891C1.83292 11.3789 4.46626 15.0206 6.84959 17.3122C7.73292 18.1622 8.86626 18.5872 9.99959 18.5872C11.1329 18.5872 12.2663 18.1622 13.1413 17.3122C15.5246 15.0206 18.1579 11.3872 17.1829 7.08724ZM9.99959 11.2622C8.54959 11.2622 7.37459 10.0872 7.37459 8.63724C7.37459 7.18724 8.54959 6.01224 9.99959 6.01224C11.4496 6.01224 12.6246 7.18724 12.6246 8.63724C12.6246 10.0872 11.4496 11.2622 9.99959 11.2622Z" fill="#652669" />
</svg>