<svg width="14" height="20" viewBox="0 0 14 20" fill="none" xmlns="http://www.w3.org/2000/svg">
<g clip-path="url(#clip0_1540_1836)">
<path d="M3.87109 14.8154C4.44948 15.5526 4.97593 16.3291 5.44663 17.1393C5.84848 17.9012 6.016 18.4179 6.30968 19.336C6.48979 19.8432 6.65257 19.9946 7.00254 19.9946C7.3839 19.9946 7.55693 19.7371 7.6906 19.3388C7.96821 18.4717 8.18603 17.8101 8.52968 17.1848C9.20401 15.9777 10.0419 14.9051 10.8653 13.8742C11.0882 13.5824 12.5292 11.8826 13.178 10.5414C13.178 10.5414 13.9754 9.06814 13.9754 7.01054C13.9754 5.08585 13.189 3.75098 13.189 3.75098L10.925 4.3573L9.55006 7.97861L9.2099 8.47795L9.14188 8.56842L9.05142 8.68166L8.89262 8.86253L8.6657 9.0894L7.44134 10.0869L4.3803 11.8543L3.87109 14.8154Z" fill="#34A853"/>
<path d="M0.711914 10.294C1.459 12.0005 2.89965 13.5005 3.87437 14.8169L9.05153 8.68428C9.05153 8.68428 8.32216 9.63818 6.99911 9.63818C5.52538 9.63818 4.3348 8.46134 4.3348 6.97742C4.3348 5.95982 4.94701 5.26074 4.94701 5.26074L1.43262 6.20243L0.711914 10.294Z" fill="#FBBC04"/>
<path d="M9.10911 0.31543C10.8286 0.869817 12.3003 2.03369 13.1905 3.74993L9.05287 8.68061C9.05287 8.68061 9.66508 7.96889 9.66508 6.95761C9.66508 5.43913 8.38644 4.30475 7.00513 4.30475C5.69892 4.30475 4.94873 5.25706 4.94873 5.25706V2.1508L9.10911 0.31543Z" fill="#4285F4"/>
<path d="M1.66016 2.494C2.68713 1.26529 4.49422 0 6.98555 0C8.19427 0 9.1049 0.31733 9.1049 0.31733L4.9449 5.25973H1.99749L1.66016 2.494Z" fill="#1A73E8"/>
<path d="M0.711717 10.294C0.711717 10.294 0.0244141 8.94804 0.0244141 6.99817C0.0244141 5.15529 0.740817 3.54439 1.66011 2.49414L4.94719 5.2603L0.711717 10.294Z" fill="#EA4335"/>
</g>
<defs>
<clipPath id="clip0_1540_1836">
<rect width="13.951" height="20" fill="white" transform="translate(0.0244141)"/>
</clipPath>
</defs>
</svg>
