<svg width="178" height="49" viewBox="0 0 178 49" fill="none" xmlns="http://www.w3.org/2000/svg">
<path d="M12.0007 0.935059C5.37279 0.935059 0 6.30785 0 12.9358C0 19.5637 5.37279 24.9365 12.0007 24.9365H24.0015V12.9358C24.0015 6.30785 18.6287 0.935059 12.0007 0.935059Z" fill="#6200DD"/>
<path d="M0 36.9344C0 43.5624 5.37279 48.9352 12.0007 48.9352C18.6287 48.9352 24.0015 43.5624 24.0015 36.9344V24.9337H12.0007C5.37279 24.9337 0 30.3065 0 36.9344Z" fill="#FF8211"/>
<path d="M47.9999 12.9358C47.9999 6.30785 42.6271 0.935059 35.9991 0.935059C29.3712 0.935059 23.9984 6.30785 23.9984 12.9358V24.9365H35.9991C42.6271 24.9365 47.9999 19.5637 47.9999 12.9358Z" fill="#02CAB5"/>
<path d="M35.3739 42.9398C39.3524 42.9398 42.5776 39.7146 42.5776 35.7361C42.5776 31.7577 39.3524 28.5325 35.3739 28.5325C31.3955 28.5325 28.1703 31.7577 28.1703 35.7361C28.1703 39.7146 31.3955 42.9398 35.3739 42.9398Z" fill="#6200DD"/>
<path d="M59.7009 29.4077C60.1347 32.5319 62.398 34.4857 66.1421 34.4857C69.5372 34.4857 71.2788 32.8797 71.2788 30.7113C71.2788 28.933 69.8405 27.5449 67.5347 26.9792L62.3557 25.6788C56.9157 24.2907 54.2609 21.5566 54.2609 17.002C54.2609 11.4916 58.8301 7.93506 64.7952 7.93506C71.1059 7.93506 75.5447 11.885 76.3731 17.6555H70.6265C69.9742 14.6613 68.0141 12.7953 64.7495 12.7953C62.0947 12.7953 60.0922 14.1834 60.0922 16.5696C60.0922 18.5235 61.4849 19.6515 63.8363 20.2562L68.973 21.6021C74.6739 23.0781 77.1134 25.6788 77.1134 30.2367C77.1134 35.3992 72.8051 39.3491 66.0997 39.3491C59.44 39.3491 54.4794 35.3147 54 29.4142H59.7009V29.4077Z" fill="#410E44"/>
<path d="M98.9612 47.9351V36.7842C96.9587 38.4325 94.4768 39.4305 91.7373 39.4305C85.0351 39.4305 79.7223 34.138 79.7223 27.6295C79.7223 21.1634 85.0319 15.8285 91.7373 15.8285C94.4801 15.8285 97.0044 16.8266 99.0069 18.5171V16.3909H104.665V47.9351H98.9612ZM92.2134 20.7732C88.4694 20.7732 85.3808 23.8552 85.3808 27.6295C85.3808 31.4462 88.4726 34.4403 92.2134 34.4403C95.9999 34.4403 99.046 31.4462 99.046 27.6295C99.046 23.8519 95.9999 20.7732 92.2134 20.7732Z" fill="#410E44"/>
<path d="M114.28 16.3908V29.5377C114.28 32.3141 116.152 34.3524 118.937 34.3524C121.722 34.3524 123.637 32.3986 123.637 29.5377V16.3908H129.338V38.8225H123.637V36.8264C122.068 38.4324 119.893 39.3426 117.456 39.3426C112.189 39.3426 108.576 35.5228 108.576 30.6658V16.3908H114.28Z" fill="#410E44"/>
<path d="M144.833 34.3947C147.227 34.3947 149.187 33.2666 150.491 31.4883L154.539 34.4402C152.275 37.3921 149.229 39.3849 144.833 39.3849C137.87 39.3849 132.472 34.0923 132.472 27.5839C132.472 21.0755 137.87 15.8252 144.833 15.8252C149.229 15.8252 152.275 17.8213 154.539 20.7699L150.491 23.7218C149.187 21.9435 147.227 20.8154 144.833 20.8154C141.134 20.8154 138.131 23.8095 138.131 27.5839C138.131 31.3583 141.134 34.3947 144.833 34.3947Z" fill="#410E44"/>
<path d="M162.591 38.8225H156.89V8.45195H162.591V18.3446C164.159 16.6964 166.377 15.7829 168.859 15.7829C174.081 15.7829 177.652 19.645 177.652 24.5475V38.8225H171.951V25.6756C171.951 22.7692 170.079 20.8609 167.294 20.8609C164.551 20.8609 162.591 22.6847 162.591 25.6756V38.8225Z" fill="#410E44"/>
</svg>
