<svg width="132" height="45" viewBox="0 0 132 45" fill="none" xmlns="http://www.w3.org/2000/svg">
<path d="M8.21423 0C3.67755 0 0 3.64 0 8.13034C0 12.6207 3.67755 16.2607 8.21423 16.2607H16.4285V8.13034C16.4285 3.64 12.7509 0 8.21423 0Z" fill="#6200DD"/>
<path d="M0 24.3891C0 28.8794 3.67755 32.5194 8.21423 32.5194C12.7509 32.5194 16.4285 28.8794 16.4285 24.3891V16.2587H8.21423C3.67755 16.2587 0 19.8987 0 24.3891Z" fill="#FF8211"/>
<path d="M32.8549 8.13034C32.8549 3.64 29.1773 0 24.6406 0C20.104 0 16.4264 3.64 16.4264 8.13034V16.2607H24.6406C29.1773 16.2607 32.8549 12.6207 32.8549 8.13034Z" fill="#02CAB5"/>
<path d="M24.2127 28.4577C26.9359 28.4577 29.1434 26.2727 29.1434 23.5773C29.1434 20.882 26.9359 18.6969 24.2127 18.6969C21.4895 18.6969 19.282 20.882 19.282 23.5773C19.282 26.2727 21.4895 28.4577 24.2127 28.4577Z" fill="#6200DD"/>
<path d="M41.0232 19.4786C41.2959 21.4225 42.7188 22.6383 45.0725 22.6383C47.2068 22.6383 48.3016 21.639 48.3016 20.2898C48.3016 19.1833 47.3975 18.3195 45.9479 17.9675L42.6921 17.1584C39.2723 16.2946 37.6034 14.5934 37.6034 11.7594C37.6034 8.33071 40.4758 6.11771 44.2257 6.11771C48.193 6.11771 50.9834 8.57547 51.5041 12.166H47.8916C47.4815 10.303 46.2493 9.14187 44.197 9.14187C42.5281 9.14187 41.2692 10.0056 41.2692 11.4904C41.2692 12.7061 42.1447 13.408 43.6229 13.7843L46.8521 14.6218C50.436 15.5401 51.9695 17.1584 51.9695 19.9944C51.9695 23.2067 49.2611 25.6645 45.0458 25.6645C40.8592 25.6645 37.7407 23.1541 37.4393 19.4826H41.0232V19.4786Z" fill="black"/>
<path d="M65.7042 31.0069V24.0685C64.4453 25.0941 62.8851 25.7151 61.1628 25.7151C56.9495 25.7151 53.6097 22.4219 53.6097 18.3722C53.6097 14.3487 56.9475 11.0293 61.1628 11.0293C62.8871 11.0293 64.474 11.6503 65.7329 12.7021V11.3792H69.2901V31.0069H65.7042ZM61.4622 14.106C59.1085 14.106 57.1669 16.0237 57.1669 18.3722C57.1669 20.747 59.1105 22.61 61.4622 22.61C63.8425 22.61 65.7575 20.747 65.7575 18.3722C65.7575 16.0216 63.8425 14.106 61.4622 14.106Z" fill="black"/>
<path d="M75.3342 11.3791V19.5595C75.3342 21.287 76.5111 22.5554 78.262 22.5554C80.0129 22.5554 81.2164 21.3396 81.2164 19.5595V11.3791H84.8002V25.3368H81.2164V24.0947C80.2302 25.094 78.8627 25.6604 77.3312 25.6604C74.02 25.6604 71.7483 23.2836 71.7483 20.2614V11.3791H75.3342Z" fill="black"/>
<path d="M94.5412 22.5817C96.0461 22.5817 97.2783 21.8797 98.0984 20.7732L100.643 22.61C99.2199 24.4467 97.305 25.6867 94.5412 25.6867C90.1639 25.6867 86.7707 22.3935 86.7707 18.3438C86.7707 14.2941 90.1639 11.0272 94.5412 11.0272C97.305 11.0272 99.2199 12.2692 100.643 14.1039L98.0984 15.9407C97.2783 14.8342 96.0461 14.1322 94.5412 14.1322C92.2162 14.1322 90.3279 15.9953 90.3279 18.3438C90.3279 20.6923 92.2162 22.5817 94.5412 22.5817Z" fill="black"/>
<path d="M105.705 25.3367H102.121V6.43934H105.705V12.5949C106.691 11.5693 108.085 11.0009 109.645 11.0009C112.928 11.0009 115.173 13.404 115.173 16.4544V25.3367H111.589V17.1564C111.589 15.3479 110.412 14.1605 108.661 14.1605C106.937 14.1605 105.705 15.2954 105.705 17.1564V25.3367Z" fill="black"/>
<path d="M72.8934 44.7142V29.5342H78.885C80.1411 29.5342 81.2032 29.9259 82.0713 30.7092C82.9393 31.4855 83.3733 32.4383 83.3733 33.5674C83.3733 34.1743 83.2181 34.7424 82.9076 35.2717C82.6041 35.801 82.1877 36.2456 81.6584 36.6055C82.4771 36.9372 83.1334 37.4418 83.6274 38.1193C84.1214 38.7897 84.3684 39.5483 84.3684 40.3952C84.3684 41.5949 83.9203 42.6147 83.024 43.4545C82.1348 44.2943 81.0445 44.7142 79.753 44.7142H72.8934ZM78.5992 31.9901H75.8257V35.7163H78.5992C79.1355 35.7163 79.573 35.5363 79.9118 35.1764C80.2505 34.8165 80.4199 34.3754 80.4199 33.8532C80.4199 33.3169 80.2505 32.8723 79.9118 32.5194C79.5801 32.1666 79.1426 31.9901 78.5992 31.9901ZM79.2449 42.2689C79.88 42.2689 80.3952 42.0748 80.7904 41.6867C81.1927 41.2915 81.3938 40.7904 81.3938 40.1835C81.3938 39.5836 81.1927 39.0826 80.7904 38.6803C80.3881 38.2781 79.873 38.0769 79.2449 38.0769H75.8257V42.2689H79.2449Z" fill="#652669"/>
<path d="M86.4322 40.6387V33.5039H89.2692V40.0776C89.2692 40.7763 89.4844 41.3514 89.9149 41.8031C90.3454 42.2548 90.9064 42.4806 91.598 42.4806C92.2896 42.4806 92.8507 42.2583 93.2812 41.8137C93.7187 41.3691 93.9375 40.7904 93.9375 40.0776V33.5039H96.7745V44.7142H93.9375V43.7191C93.1188 44.5589 92.092 44.9788 90.857 44.9788C89.5656 44.9788 88.5035 44.5625 87.6707 43.7297C86.845 42.897 86.4322 41.8666 86.4322 40.6387Z" fill="#652669"/>
<path d="M103.697 44.9788C102.272 44.9788 101.107 44.626 100.204 43.9203C99.3076 43.2145 98.7465 42.3006 98.5207 41.1785H101.209C101.344 41.7219 101.633 42.1277 102.077 42.3959C102.522 42.657 103.062 42.7876 103.697 42.7876C104.205 42.7876 104.6 42.6817 104.883 42.47C105.165 42.2583 105.306 41.9795 105.306 41.6337C105.306 41.4008 105.211 41.1927 105.02 41.0092C104.83 40.8257 104.547 40.6881 104.173 40.5963L101.855 40.0565C99.7592 39.5554 98.7112 38.4545 98.7112 36.7537C98.7112 35.6951 99.1029 34.8447 99.8862 34.2025C100.67 33.5533 101.672 33.2287 102.893 33.2287C104.276 33.2287 105.398 33.5886 106.259 34.3084C107.127 35.0212 107.646 35.9386 107.815 37.0607H105.147C105.006 36.5102 104.72 36.0974 104.29 35.8222C103.859 35.5469 103.387 35.4093 102.871 35.4093C102.434 35.4093 102.092 35.5081 101.845 35.7057C101.605 35.9033 101.485 36.1538 101.485 36.4573C101.485 37.036 101.933 37.4312 102.829 37.6429L104.978 38.1722C107.032 38.6662 108.058 39.7495 108.058 41.422C108.058 42.4524 107.663 43.3028 106.873 43.9732C106.082 44.6436 105.024 44.9788 103.697 44.9788Z" fill="#652669"/>
<path d="M109.477 39.1037C109.477 38.0734 109.727 37.1101 110.228 36.2138C110.729 35.3176 111.428 34.6013 112.324 34.0649C113.22 33.5215 114.208 33.2498 115.288 33.2498C116.968 33.2498 118.344 33.8109 119.417 34.933C120.496 36.055 121.036 37.4877 121.036 39.2308V40.0565H112.388C112.578 40.7975 112.959 41.4008 113.531 41.8666C114.102 42.3324 114.769 42.5653 115.532 42.5653C116.146 42.5653 116.689 42.4524 117.162 42.2265C117.635 41.9936 118.072 41.6161 118.474 41.0939L120.454 42.5653C119.882 43.3416 119.18 43.9414 118.347 44.3649C117.515 44.7883 116.583 45 115.553 45C114.424 45 113.393 44.7495 112.462 44.2484C111.537 43.7474 110.807 43.0452 110.27 42.1419C109.741 41.2385 109.477 40.2258 109.477 39.1037ZM115.225 35.674C114.561 35.674 113.979 35.8716 113.478 36.2668C112.977 36.662 112.628 37.2018 112.43 37.8864H118.178C117.973 37.2018 117.603 36.662 117.066 36.2668C116.53 35.8716 115.916 35.674 115.225 35.674Z" fill="#652669"/>
<path d="M127.578 44.9788C126.152 44.9788 124.988 44.626 124.084 43.9203C123.188 43.2145 122.627 42.3006 122.401 41.1785H125.09C125.224 41.7219 125.513 42.1277 125.958 42.3959C126.403 42.657 126.943 42.7876 127.578 42.7876C128.086 42.7876 128.481 42.6817 128.763 42.47C129.046 42.2583 129.187 41.9795 129.187 41.6337C129.187 41.4008 129.091 41.1927 128.901 41.0092C128.71 40.8257 128.428 40.6881 128.054 40.5963L125.736 40.0565C123.64 39.5554 122.592 38.4545 122.592 36.7537C122.592 35.6951 122.983 34.8447 123.767 34.2025C124.55 33.5533 125.552 33.2287 126.773 33.2287C128.156 33.2287 129.278 33.5886 130.139 34.3084C131.007 35.0212 131.526 35.9386 131.696 37.0607H129.028C128.887 36.5102 128.601 36.0974 128.171 35.8222C127.74 35.5469 127.267 35.4093 126.752 35.4093C126.314 35.4093 125.972 35.5081 125.725 35.7057C125.485 35.9033 125.365 36.1538 125.365 36.4573C125.365 37.036 125.813 37.4312 126.71 37.6429L128.859 38.1722C130.912 38.6662 131.939 39.7495 131.939 41.422C131.939 42.4524 131.544 43.3028 130.753 43.9732C129.963 44.6436 128.904 44.9788 127.578 44.9788Z" fill="#652669"/>
</svg>
