<svg width="178" height="49" viewBox="0 0 178 49" fill="none" xmlns="http://www.w3.org/2000/svg">
<path d="M12.0007 0.768555C5.37279 0.768555 0 6.14134 0 12.7693C0 19.3972 5.37279 24.77 12.0007 24.77H24.0015V12.7693C24.0015 6.14134 18.6287 0.768555 12.0007 0.768555Z" fill="#6200DD"/>
<path d="M0 36.7683C0 43.3963 5.37279 48.769 12.0007 48.769C18.6287 48.769 24.0015 43.3963 24.0015 36.7683V24.7676H12.0007C5.37279 24.7676 0 30.1404 0 36.7683Z" fill="#FF8211"/>
<path d="M47.9995 12.7693C47.9995 6.14134 42.6267 0.768555 35.9988 0.768555C29.3708 0.768555 23.998 6.14134 23.998 12.7693V24.77H35.9988C42.6267 24.77 47.9995 19.3972 47.9995 12.7693Z" fill="#02CAB5"/>
<path d="M35.3736 42.7735C39.352 42.7735 42.5772 39.5483 42.5772 35.5699C42.5772 31.5914 39.352 28.3662 35.3736 28.3662C31.3951 28.3662 28.1699 31.5914 28.1699 35.5699C28.1699 39.5483 31.3951 42.7735 35.3736 42.7735Z" fill="#6200DD"/>
<path d="M59.7009 29.2412C60.1347 32.3654 62.398 34.3192 66.1421 34.3192C69.5372 34.3192 71.2788 32.7132 71.2788 30.5448C71.2788 28.7665 69.8405 27.3784 67.5347 26.8127L62.3557 25.5123C56.9157 24.1242 54.2609 21.3901 54.2609 16.8355C54.2609 11.3251 58.8301 7.76855 64.7952 7.76855C71.1059 7.76855 75.5447 11.7185 76.3731 17.4889H70.6265C69.9742 14.4948 68.0141 12.6288 64.7495 12.6288C62.0947 12.6288 60.0922 14.0169 60.0922 16.4031C60.0922 18.3569 61.4849 19.485 63.8363 20.0897L68.973 21.4356C74.6739 22.9116 77.1134 25.5123 77.1134 30.0702C77.1134 35.2327 72.8051 39.1826 66.0997 39.1826C59.44 39.1826 54.4794 35.1482 54 29.2477H59.7009V29.2412Z" fill="#211332"/>
<path d="M98.9612 47.7686V36.6177C96.9587 38.266 94.4768 39.264 91.7373 39.264C85.0351 39.264 79.7223 33.9715 79.7223 27.463C79.7223 20.9969 85.0319 15.662 91.7373 15.662C94.4801 15.662 97.0044 16.6601 99.0069 18.3506V16.2244H104.665V47.7686H98.9612ZM92.2134 20.6067C88.4694 20.6067 85.3808 23.6887 85.3808 27.463C85.3808 31.2797 88.4726 34.2738 92.2134 34.2738C95.9999 34.2738 99.046 31.2797 99.046 27.463C99.046 23.6854 95.9999 20.6067 92.2134 20.6067Z" fill="#211332"/>
<path d="M114.28 16.2243V29.3712C114.28 32.1476 116.152 34.1859 118.937 34.1859C121.722 34.1859 123.637 32.2321 123.637 29.3712V16.2243H129.338V38.656H123.637V36.6599C122.068 38.2659 119.893 39.1761 117.456 39.1761C112.189 39.1761 108.576 35.3563 108.576 30.4993V16.2243H114.28Z" fill="#211332"/>
<path d="M144.833 34.2282C147.227 34.2282 149.187 33.1001 150.491 31.3218L154.539 34.2737C152.275 37.2256 149.229 39.2184 144.833 39.2184C137.87 39.2184 132.472 33.9258 132.472 27.4174C132.472 20.909 137.87 15.6587 144.833 15.6587C149.229 15.6587 152.275 17.6548 154.539 20.6034L150.491 23.5553C149.187 21.777 147.227 20.6489 144.833 20.6489C141.134 20.6489 138.131 23.643 138.131 27.4174C138.131 31.1918 141.134 34.2282 144.833 34.2282Z" fill="#211332"/>
<path d="M162.591 38.656H156.89V8.28545H162.591V18.1781C164.159 16.5299 166.377 15.6164 168.859 15.6164C174.081 15.6164 177.652 19.4785 177.652 24.381V38.656H171.951V25.5091C171.951 22.6027 170.079 20.6944 167.294 20.6944C164.551 20.6944 162.591 22.5182 162.591 25.5091V38.656Z" fill="#211332"/>
</svg>
