<svg width="31" height="31" viewBox="0 0 31 31" fill="none" xmlns="http://www.w3.org/2000/svg">
<path d="M20.4631 27.158C20.187 27.158 19.9631 26.9343 19.9631 26.658V3.65845C19.9631 3.38208 20.187 3.15845 20.4631 3.15845C20.7393 3.15845 20.9631 3.38208 20.9631 3.65845V26.658C20.9631 26.9343 20.7393 27.158 20.4631 27.158Z" fill="#FB7E6A"/>
<path d="M20.4614 4.54907V25.7691L10.4314 19.0491H7.79636C5.64636 19.0491 3.90137 17.3091 3.90137 15.1591C3.90137 14.0841 4.33636 13.1091 5.04135 12.4091C5.74637 11.7041 6.72137 11.2691 7.79636 11.2691H10.4314L20.4614 4.54907Z" fill="#FB7E6A"/>
<path d="M20.4609 26.2693C20.3635 26.2693 20.2666 26.241 20.1826 26.1849L10.2788 19.5491H7.7959C5.37256 19.5491 3.40088 17.5799 3.40088 15.1595C3.40088 13.9817 3.85815 12.8787 4.68848 12.0545C5.51685 11.2264 6.62085 10.7693 7.7959 10.7693H10.2788L20.1826 4.13359C20.3362 4.03056 20.5337 4.02128 20.6963 4.1082C20.8591 4.19511 20.9609 4.36455 20.9609 4.54912V25.7693C20.9609 25.9539 20.8591 26.1233 20.6963 26.2102C20.6226 26.2498 20.5417 26.2693 20.4609 26.2693ZM7.7959 11.7693C6.88794 11.7693 6.03516 12.1224 5.39429 12.763C4.75317 13.3992 4.40088 14.2503 4.40088 15.1595C4.40088 17.0286 5.92383 18.5491 7.7959 18.5491H10.4309C10.53 18.5491 10.627 18.5784 10.7092 18.6336L19.9609 24.8323V5.48613L10.7092 11.6849C10.627 11.74 10.53 11.7693 10.4309 11.7693H7.7959Z" fill="#FB7E6A"/>
<path d="M10.4314 11.2678V19.0478H7.79636C5.64636 19.0478 3.90137 17.3078 3.90137 15.1578C3.90137 14.0828 4.33636 13.1078 5.04138 12.4078C5.74637 11.7028 6.72137 11.2678 7.79636 11.2678H10.4314Z" fill="#FB7E6A"/>
<path d="M10.4309 19.5481H7.79565C5.37231 19.5481 3.40088 17.5789 3.40088 15.158C3.40088 13.9797 3.85815 12.8772 4.68848 12.053C5.51685 11.2249 6.62085 10.7678 7.79565 10.7678H10.4309C10.707 10.7678 10.9309 10.9915 10.9309 11.2678V19.0481C10.9309 19.3245 10.707 19.5481 10.4309 19.5481ZM7.79565 11.7678C6.88794 11.7678 6.03516 12.1208 5.39429 12.7615C4.75317 13.3977 4.40088 14.2483 4.40088 15.158C4.40088 17.0271 5.92383 18.5481 7.79565 18.5481H9.93091V11.7678H7.79565Z" fill="#FB7E6A"/>
<path d="M20.4634 19.1174C20.1873 19.1174 19.9634 18.8938 19.9634 18.6174C19.9634 18.3411 20.1873 18.1174 20.4634 18.1174C22.095 18.1174 23.4224 16.7898 23.4224 15.1584C23.4224 13.5291 22.095 12.2034 20.4634 12.2034C20.1873 12.2034 19.9634 11.9797 19.9634 11.7034C19.9634 11.427 20.1873 11.2034 20.4634 11.2034C22.6465 11.2034 24.4224 12.9778 24.4224 15.1584C24.4224 17.3416 22.6465 19.1174 20.4634 19.1174Z" fill="#FB7E6A"/>
<path d="M26.9026 15.6575H25.4951C25.219 15.6575 24.9951 15.4338 24.9951 15.1575C24.9951 14.8811 25.219 14.6575 25.4951 14.6575H26.9026C27.1787 14.6575 27.4026 14.8811 27.4026 15.1575C27.4026 15.4338 27.1787 15.6575 26.9026 15.6575Z" fill="#FB7E6A"/>
<path d="M25.0181 20.2126C24.8902 20.2126 24.762 20.1638 24.6643 20.0662L23.6692 19.0706C23.4742 18.8752 23.4742 18.5588 23.6695 18.3635C23.8648 18.1682 24.1814 18.1682 24.3767 18.3635L25.3719 19.3591C25.5669 19.5544 25.5669 19.8708 25.3716 20.0662C25.274 20.1638 25.146 20.2126 25.0181 20.2126Z" fill="#FB7E6A"/>
<path d="M24.0229 12.0999C23.895 12.0999 23.7671 12.051 23.6694 11.9534C23.4741 11.7581 23.4741 11.4417 23.6694 11.2463L24.6646 10.2512C24.8599 10.0559 25.1763 10.0559 25.3716 10.2512C25.5669 10.4465 25.5669 10.7629 25.3716 10.9583L24.3765 11.9534C24.2788 12.051 24.1509 12.0999 24.0229 12.0999Z" fill="#FB7E6A"/>
<path d="M25.1122 13.7322C24.9159 13.7322 24.7299 13.616 24.65 13.4236C24.5443 13.1682 24.6654 12.8757 24.9205 12.7703L26.2208 12.2317C26.4767 12.1262 26.7684 12.2473 26.8742 12.5022C26.9799 12.7576 26.8588 13.05 26.6037 13.1555L25.3034 13.6941C25.2406 13.72 25.1759 13.7322 25.1122 13.7322Z" fill="#FB7E6A"/>
<path d="M26.412 18.123C26.3483 18.123 26.2836 18.1108 26.2208 18.0849L24.9205 17.5463C24.6654 17.4409 24.5443 17.1484 24.65 16.893C24.7555 16.6381 25.047 16.5166 25.3034 16.6225L26.6037 17.1611C26.8588 17.2666 26.9799 17.559 26.8742 17.8144C26.7943 18.0068 26.6083 18.123 26.412 18.123Z" fill="#FB7E6A"/>
<path d="M9.83008 23.8551C7.74023 23.8551 6.04004 22.1549 6.04004 20.0651C6.04004 19.6105 6.12158 19.1627 6.28223 18.7345C6.37939 18.4762 6.66797 18.3459 6.92578 18.442C7.18433 18.5392 7.31543 18.8273 7.21826 19.0861C7.1001 19.4015 7.04004 19.7306 7.04004 20.0651C7.04004 21.6037 8.29175 22.8551 9.83008 22.8551C11.1213 22.8551 12.2642 21.9425 12.5474 20.6852C12.6079 20.4157 12.8779 20.2467 13.145 20.3073C13.4143 20.3678 13.5835 20.6354 13.5229 20.9049C13.1379 22.6144 11.5847 23.8551 9.83008 23.8551Z" fill="#FB7E6A"/>
<path d="M10.4316 19.5481C10.1555 19.5481 9.93164 19.3245 9.93164 19.0481V11.2678C9.93164 10.9915 10.1555 10.7678 10.4316 10.7678C10.7078 10.7678 10.9316 10.9915 10.9316 11.2678V19.0481C10.9316 19.3245 10.7078 19.5481 10.4316 19.5481Z" fill="#FB7E6A"/>
</svg>
