<svg width="28" height="29" viewBox="0 0 28 29" fill="none" xmlns="http://www.w3.org/2000/svg">
<path d="M9.33345 10.2604H7.90662C6.38995 10.2604 5.63279 10.2604 5.09495 10.5696C4.62129 10.8414 4.25729 11.2696 4.06712 11.7818C3.85129 12.3639 3.97495 13.1118 4.22462 14.6051V14.6074L5.31312 21.1408C5.49862 22.2491 5.59079 22.8033 5.86729 23.2198C6.11229 23.5861 6.45412 23.8754 6.85545 24.0563C7.31045 24.2604 7.87279 24.2604 8.99629 24.2604H19.004C20.1275 24.2604 20.6886 24.2604 21.1448 24.0563C21.5461 23.8754 21.8891 23.5861 22.133 23.2198C22.4095 22.8033 22.5016 22.2491 22.686 21.1408L23.7756 14.6074V14.6028C24.0253 13.1094 24.149 12.3628 23.9331 11.7818C23.7432 11.2701 23.3799 10.8411 22.9065 10.5696C22.3686 10.2604 21.6103 10.2604 20.0936 10.2604H18.6668M9.33345 10.2604H18.6668M9.33345 10.2604C9.33345 9.02274 9.82512 7.83575 10.7003 6.96058C11.5755 6.08542 12.7624 5.59375 14.0001 5.59375C15.2378 5.59375 16.4248 6.08542 17.3 6.96058C18.1751 7.83575 18.6668 9.02274 18.6668 10.2604" stroke="#838383" stroke-width="1.90909" stroke-linecap="round" stroke-linejoin="round" />
</svg>