<svg width="21" height="21" viewBox="0 0 21 21" fill="none" xmlns="http://www.w3.org/2000/svg">
<path d="M10.6729 13.0456C12.5145 13.0456 14.0062 11.5539 14.0062 9.71224V5.12891C14.0062 3.28724 12.5145 1.79557 10.6729 1.79557C8.83121 1.79557 7.33954 3.28724 7.33954 5.12891V9.71224C7.33954 11.5539 8.83121 13.0456 10.6729 13.0456Z" stroke="#FB7E6A" stroke-width="1.5" stroke-linecap="round" stroke-linejoin="round" />
<path d="M4.29785 8.17057V9.58724C4.29785 13.1039 7.15619 15.9622 10.6729 15.9622C14.1895 15.9622 17.0479 13.1039 17.0479 9.58724V8.17057" stroke="#FB7E6A" stroke-width="1.5" stroke-linecap="round" stroke-linejoin="round" />
<path d="M9.51453 5.48724C10.2645 5.21224 11.0812 5.21224 11.8312 5.48724" stroke="#FB7E6A" stroke-width="1.5" stroke-linecap="round" stroke-linejoin="round" />
<path d="M10.0062 7.2539C10.4478 7.13724 10.9062 7.13724 11.3478 7.2539" stroke="#FB7E6A" stroke-width="1.5" stroke-linecap="round" stroke-linejoin="round" />
<path d="M10.6729 15.9622V18.4622" stroke="#FB7E6A" stroke-width="1.5" stroke-linecap="round" stroke-linejoin="round" />
</svg>