<svg width="28" height="29" viewBox="0 0 28 29" fill="none" xmlns="http://www.w3.org/2000/svg">
<path d="M4.65371 18.0299L2.88039 16.2566C2.15706 15.5333 2.15706 14.3432 2.88039 13.6199L4.65371 11.8466C4.95704 11.5432 5.20205 10.9482 5.20205 10.5282V8.01986C5.20205 6.99319 6.04205 6.15322 7.06872 6.15322H9.57705C9.99705 6.15322 10.5921 5.90825 10.8954 5.60492L12.6687 3.83156C13.392 3.10823 14.5821 3.10823 15.3054 3.83156L17.0787 5.60492C17.3821 5.90825 17.977 6.15322 18.397 6.15322H20.9054C21.9321 6.15322 22.772 6.99319 22.772 8.01986V10.5282C22.772 10.9482 23.017 11.5432 23.3204 11.8466L25.0937 13.6199C25.8171 14.3432 25.8171 15.5333 25.0937 16.2566L23.3204 18.0299C23.017 18.3333 22.772 18.9283 22.772 19.3483V21.8565C22.772 22.8832 21.9321 23.7233 20.9054 23.7233H18.397C17.977 23.7233 17.3821 23.9683 17.0787 24.2716L15.3054 26.0449C14.5821 26.7683 13.392 26.7683 12.6687 26.0449L10.8954 24.2716C10.5921 23.9683 9.99705 23.7233 9.57705 23.7233H7.06872C6.04205 23.7233 5.20205 22.8832 5.20205 21.8565V19.3483C5.20205 18.9166 4.95704 18.3216 4.65371 18.0299Z" stroke="#838383" stroke-width="1.75" stroke-linecap="round" stroke-linejoin="round" />
<path d="M10.5 18.4297L17.5 11.4297" stroke="#838383" stroke-width="1.75" stroke-linecap="round" stroke-linejoin="round" />
<path d="M16.9102 17.8451H16.9207" stroke="#838383" stroke-width="2.33333" stroke-linecap="round" stroke-linejoin="round" />
<path d="M11.0769 12.013H11.0874" stroke="#838383" stroke-width="2.33333" stroke-linecap="round" stroke-linejoin="round" />
</svg>