<svg width="40" height="40" viewBox="0 0 40 40" fill="none" xmlns="http://www.w3.org/2000/svg">
<path d="M6.64816 24.4334L4.11484 21.9C3.08151 20.8667 3.08151 19.1667 4.11484 18.1334L6.64816 15.6C7.08149 15.1667 7.43149 14.3167 7.43149 13.7167V10.1333C7.43149 8.66661 8.6315 7.46665 10.0982 7.46665H13.6815C14.2815 7.46665 15.1315 7.1167 15.5648 6.68337L18.0982 4.15C19.1315 3.11667 20.8315 3.11667 21.8648 4.15L24.3982 6.68337C24.8315 7.1167 25.6815 7.46665 26.2815 7.46665H29.8649C31.3315 7.46665 32.5315 8.66661 32.5315 10.1333V13.7167C32.5315 14.3167 32.8815 15.1667 33.3148 15.6L35.8482 18.1334C36.8815 19.1667 36.8815 20.8667 35.8482 21.9L33.3148 24.4334C32.8815 24.8667 32.5315 25.7167 32.5315 26.3167V29.8999C32.5315 31.3666 31.3315 32.5667 29.8649 32.5667H26.2815C25.6815 32.5667 24.8315 32.9167 24.3982 33.35L21.8648 35.8834C20.8315 36.9167 19.1315 36.9167 18.0982 35.8834L15.5648 33.35C15.1315 32.9167 14.2815 32.5667 13.6815 32.5667H10.0982C8.6315 32.5667 7.43149 31.3666 7.43149 29.8999V26.3167C7.43149 25.7001 7.08149 24.8501 6.64816 24.4334Z" fill="url(#paint0_linear_4220_55797)"/>
<path d="M15 25L25 15" stroke="#FAF5FF" stroke-width="2.5" stroke-linecap="round" stroke-linejoin="round"/>
<path d="M24.1572 24.1673H24.1722" stroke="white" stroke-width="3.33333" stroke-linecap="round" stroke-linejoin="round"/>
<path d="M15.8242 15.8333H15.8391" stroke="white" stroke-width="3.33333" stroke-linecap="round" stroke-linejoin="round"/>
<defs>
<linearGradient id="paint0_linear_4220_55797" x1="13.354" y1="32.9419" x2="58.7879" y2="-12.492" gradientUnits="userSpaceOnUse">
<stop stop-color="#20A66A"/>
<stop offset="1" stop-color="#0F4C31"/>
</linearGradient>
</defs>
</svg>
