<svg width="21" height="20" viewBox="0 0 21 20" fill="none" xmlns="http://www.w3.org/2000/svg">
<path fill-rule="evenodd" clip-rule="evenodd" d="M3.98524 3.74187L3.36774 3.73875C3.02336 3.7375 2.74211 4.01625 2.74024 4.36125C2.73899 4.70625 3.01774 4.9875 3.36274 4.98875L3.98524 4.99187V7.49563L3.38024 7.49312C3.03524 7.49125 2.75399 7.77062 2.75274 8.11562C2.75149 8.46 3.03024 8.74125 3.37524 8.74312L3.98524 8.74563V11.2525L3.38024 11.25C3.03524 11.2487 2.75399 11.5275 2.75274 11.8725C2.75149 12.2175 3.03024 12.4987 3.37524 12.5L3.98524 12.5025V14.9975L3.38024 14.995C3.03524 14.9931 2.75399 15.2725 2.75274 15.6175C2.75149 15.9625 3.03024 16.2431 3.37524 16.245L3.98524 16.2475V16.875C3.98524 17.9106 4.82461 18.75 5.86024 18.75C8.02711 18.75 12.4559 18.75 14.6227 18.75C15.6584 18.75 16.4977 17.9106 16.4977 16.875V3.125C16.4977 2.08938 15.6584 1.25 14.6227 1.25C12.4559 1.25 8.02711 1.25 5.86024 1.25C4.82461 1.25 3.98524 2.08938 3.98524 3.125V3.74187ZM5.23524 16.2525V16.875C5.23524 17.22 5.51524 17.5 5.86024 17.5C8.02711 17.5 12.4559 17.5 14.6227 17.5C14.9677 17.5 15.2477 17.22 15.2477 16.875V3.125C15.2477 2.78 14.9677 2.5 14.6227 2.5C12.4559 2.5 8.02711 2.5 5.86024 2.5C5.51524 2.5 5.23524 2.78 5.23524 3.125V3.74687L5.87524 3.74938C6.22024 3.75063 6.49899 4.03187 6.49774 4.37687C6.49649 4.72187 6.21524 5.00063 5.87024 4.99938L5.23524 4.99687V7.50063L5.87524 7.50313C6.22024 7.50437 6.49899 7.78562 6.49774 8.13062C6.49649 8.47563 6.21524 8.75437 5.87024 8.75313L5.23524 8.75063V11.2575L5.87524 11.2606C6.22024 11.2619 6.49899 11.5431 6.49774 11.8881C6.49649 12.2331 6.21524 12.5119 5.87024 12.5106L5.23524 12.5075V15.0025L5.87524 15.005C6.22024 15.0069 6.49899 15.2881 6.49774 15.6325C6.49649 15.9775 6.21524 16.2569 5.87024 16.255L5.23524 16.2525Z" fill="#5D5D5D" />
<path fill-rule="evenodd" clip-rule="evenodd" d="M13.3848 14.375C13.7298 14.375 14.0098 14.095 14.0098 13.75C14.0098 12.0237 12.6104 10.625 10.8848 10.625C9.15914 10.625 7.75977 12.0237 7.75977 13.75C7.75977 14.095 8.03977 14.375 8.38477 14.375H13.3848ZM12.6529 13.125H9.11664C9.37352 12.3969 10.0685 11.875 10.8848 11.875C11.701 11.875 12.396 12.3969 12.6529 13.125Z" fill="#5D5D5D" />
<path fill-rule="evenodd" clip-rule="evenodd" d="M10.8857 5.62109C9.85445 5.62109 9.01758 6.45859 9.01758 7.48984C9.01758 8.52109 9.85445 9.35797 10.8857 9.35797C11.917 9.35797 12.7545 8.52109 12.7545 7.48984C12.7545 6.45859 11.917 5.62109 10.8857 5.62109ZM10.8857 6.87109C11.227 6.87109 11.5045 7.14859 11.5045 7.48984C11.5045 7.83109 11.227 8.10797 10.8857 8.10797C10.5445 8.10797 10.2676 7.83109 10.2676 7.48984C10.2676 7.14859 10.5445 6.87109 10.8857 6.87109Z" fill="#5D5D5D" />
</svg>