<svg width="14" height="15" viewBox="0 0 14 15" fill="none" xmlns="http://www.w3.org/2000/svg">
<circle cx="7" cy="7.74219" r="7" fill="#DB8AE8"></circle>
<path d="M7.67356 4.4399L8.358 5.80878C8.45133 5.99934 8.70022 6.18212 8.91022 6.21712L10.1508 6.42323C10.9441 6.55545 11.1308 7.13101 10.5591 7.69878L9.59467 8.66323C9.43133 8.82656 9.34189 9.14156 9.39244 9.36712L9.66856 10.561C9.88633 11.506 9.38467 11.8716 8.54856 11.3777L7.38578 10.6893C7.17578 10.5649 6.82967 10.5649 6.61578 10.6893L5.453 11.3777C4.62078 11.8716 4.11522 11.5021 4.333 10.561L4.60911 9.36712C4.65967 9.14156 4.57022 8.82656 4.40689 8.66323L3.44245 7.69878C2.87467 7.13101 3.05745 6.55545 3.85078 6.42323L5.09133 6.21712C5.29745 6.18212 5.54633 5.99934 5.63967 5.80878L6.32411 4.4399C6.69745 3.69712 7.30411 3.69712 7.67356 4.4399Z" fill="white"></path>
</svg>