<svg width="13" height="14" viewBox="0 0 13 14" fill="none" xmlns="http://www.w3.org/2000/svg">
<path d="M7.5508 10.5137L4.14413 8.65575C3.81713 8.98035 3.40134 9.20086 2.94919 9.2895C2.49704 9.37814 2.02877 9.33092 1.60342 9.15381C1.17806 8.9767 0.814661 8.67763 0.559033 8.29429C0.303405 7.91095 0.166992 7.4605 0.166992 6.99975C0.166992 6.53899 0.303405 6.08855 0.559033 5.70521C0.814661 5.32187 1.17806 5.02279 1.60342 4.84568C2.02877 4.66857 2.49704 4.62136 2.94919 4.71C3.40134 4.79863 3.81713 5.01915 4.14413 5.34375L7.5508 3.48575C7.43396 2.93757 7.51835 2.36566 7.78853 1.87458C8.05871 1.38351 8.49663 1.0061 9.0222 0.81137C9.54777 0.616638 10.1259 0.617598 10.6508 0.814072C11.1757 1.01055 11.6124 1.38941 11.8809 1.88137C12.1495 2.37334 12.232 2.94553 12.1133 3.49332C11.9947 4.0411 11.6828 4.52787 11.2347 4.86462C10.7867 5.20136 10.2324 5.36557 9.67321 5.32721C9.11404 5.28886 8.58735 5.05051 8.18947 4.65575L4.7828 6.51375C4.85094 6.83394 4.85094 7.16489 4.7828 7.48508L8.18947 9.34375C8.58735 8.94899 9.11404 8.71064 9.67321 8.67228C10.2324 8.63393 10.7867 8.79814 11.2347 9.13488C11.6828 9.47162 11.9947 9.95839 12.1133 10.5062C12.232 11.054 12.1495 11.6262 11.8809 12.1181C11.6124 12.6101 11.1757 12.9889 10.6508 13.1854C10.1259 13.3819 9.54777 13.3829 9.0222 13.1881C8.49663 12.9934 8.05871 12.616 7.78853 12.1249C7.51835 11.6338 7.43396 11.0619 7.5508 10.5137Z" fill="#652669"/>
</svg>
