<svg width="15" height="17" viewBox="0 0 15 17" fill="none" xmlns="http://www.w3.org/2000/svg">
<path fill-rule="evenodd" clip-rule="evenodd" d="M11.6079 0.0351565C11.2171 0.0350254 10.8311 0.120637 10.477 0.285952C10.123 0.451267 9.80951 0.692259 9.55874 0.991925C9.30798 1.29159 9.12602 1.64263 9.02571 2.02029C8.9254 2.39794 8.90918 2.793 8.97819 3.17761L5.09121 5.89932L5.03533 5.94287C4.64099 5.63461 4.16796 5.44337 3.67019 5.39095C3.17241 5.33853 2.66992 5.42704 2.22002 5.6464C1.77012 5.86576 1.39092 6.20713 1.12565 6.63158C0.86038 7.05603 0.719727 7.54649 0.719727 8.04702C0.719727 8.54755 0.86038 9.038 1.12565 9.46245C1.39092 9.88691 1.77012 10.2283 2.22002 10.4476C2.66992 10.667 3.17241 10.7555 3.67019 10.7031C4.16796 10.6507 4.64099 10.4594 5.03533 10.1512L5.09121 10.1955L8.97819 12.9172C8.9508 13.0706 8.9371 13.2279 8.9371 13.3889C8.9372 14.0221 9.16225 14.6346 9.57208 15.1173C9.98192 15.5999 10.5499 15.9212 11.1747 16.0239C11.7994 16.1266 12.4404 16.004 12.9831 15.6779C13.5259 15.3519 13.9352 14.8436 14.1379 14.2438C14.3407 13.644 14.3238 12.9917 14.0902 12.4032C13.8566 11.8147 13.4216 11.3283 12.8626 11.0309C12.3037 10.7334 11.6573 10.6442 11.0387 10.7791C10.42 10.914 9.86949 11.2644 9.48522 11.7676L5.80451 9.18969C5.96886 8.8429 6.0609 8.45585 6.0609 8.04661C6.0609 7.63736 5.96886 7.24949 5.80451 6.90352L9.48604 4.32645C9.76172 4.68759 10.125 4.97243 10.5414 5.15404C10.9579 5.33564 11.4138 5.408 11.866 5.36427C12.3182 5.32054 12.7518 5.16217 13.1258 4.90414C13.4997 4.6461 13.8017 4.29694 14.0031 3.88966C14.2044 3.48239 14.2986 3.03048 14.2766 2.57668C14.2546 2.12288 14.1172 1.68218 13.8774 1.29629C13.6376 0.910388 13.3033 0.592044 12.9062 0.371364C12.5091 0.150685 12.0622 0.0349673 11.6079 0.0351565ZM10.1698 2.70591C10.1698 2.32451 10.3213 1.95872 10.591 1.68902C10.8607 1.41933 11.2264 1.26781 11.6079 1.26781C11.9893 1.26781 12.3551 1.41933 12.6247 1.68902C12.8944 1.95872 13.046 2.32451 13.046 2.70591C13.046 3.08732 12.8944 3.45311 12.6247 3.7228C12.3551 3.9925 11.9893 4.14401 11.6079 4.14401C11.2264 4.14401 10.8607 3.9925 10.591 3.7228C10.3213 3.45311 10.1698 3.08732 10.1698 2.70591ZM3.39014 6.60933C3.00873 6.60933 2.64295 6.76084 2.37325 7.03054C2.10356 7.30023 1.95204 7.66602 1.95204 8.04743C1.95204 8.42884 2.10356 8.79462 2.37325 9.06432C2.64295 9.33401 3.00873 9.48553 3.39014 9.48553C3.77155 9.48553 4.13734 9.33401 4.40703 9.06432C4.67673 8.79462 4.82824 8.42884 4.82824 8.04743C4.82824 7.66602 4.67673 7.30023 4.40703 7.03054C4.13734 6.76084 3.77155 6.60933 3.39014 6.60933ZM11.6079 11.9508C11.2264 11.9508 10.8607 12.1024 10.591 12.3721C10.3213 12.6417 10.1698 13.0075 10.1698 13.3889C10.1698 13.7704 10.3213 14.1361 10.591 14.4058C10.8607 14.6755 11.2264 14.827 11.6079 14.827C11.9893 14.827 12.3551 14.6755 12.6247 14.4058C12.8944 14.1361 13.046 13.7704 13.046 13.3889C13.046 13.0075 12.8944 12.6417 12.6247 12.3721C12.3551 12.1024 11.9893 11.9508 11.6079 11.9508Z" fill="#652669"/>
</svg>
