<svg width="178" height="49" viewBox="0 0 178 49" fill="none" xmlns="http://www.w3.org/2000/svg">
<path d="M12.056 0.547281C5.39752 0.547281 0 5.9448 0 12.6033C0 19.2617 5.39752 24.6592 12.056 24.6592H24.112V12.6033C24.112 5.9448 18.7144 0.547281 12.056 0.547281Z" fill="#FB7E6A"/>
<path d="M0 36.7142C0 43.3727 5.39752 48.7702 12.056 48.7702C18.7144 48.7702 24.112 43.3727 24.112 36.7142V24.6582H12.056C5.39752 24.6582 0 30.0558 0 36.7142Z" fill="#FEFBEC"/>
<path d="M48.2199 12.6033C48.2199 5.9448 42.8223 0.547281 36.1639 0.547281C29.5054 0.547281 24.1079 5.9448 24.1079 12.6033V24.6592H36.1639C42.8223 24.6592 48.2199 19.2617 48.2199 12.6033Z" fill="#410E44"/>
<path d="M35.537 42.7445C39.5338 42.7445 42.7738 39.5045 42.7738 35.5077C42.7738 31.5109 39.5338 28.2709 35.537 28.2709C31.5402 28.2709 28.3002 31.5109 28.3002 35.5077C28.3002 39.5045 31.5402 42.7445 35.537 42.7445Z" fill="#CE99FF"/>
<path d="M59.9213 29.2412C60.3551 32.3654 62.6185 34.3192 66.3626 34.3192C69.7577 34.3192 71.4992 32.7132 71.4992 30.5448C71.4992 28.7665 70.061 27.3784 67.7552 26.8127L62.5761 25.5123C57.1361 24.1242 54.4814 21.3901 54.4814 16.8355C54.4814 11.3251 59.0506 7.76855 65.0156 7.76855C71.3264 7.76855 75.7651 11.7185 76.5935 17.4889H70.847C70.1947 14.4948 68.2346 12.6288 64.97 12.6288C62.3152 12.6288 60.3127 14.0169 60.3127 16.4031C60.3127 18.3569 61.7053 19.485 64.0568 20.0897L69.1935 21.4356C74.8943 22.9116 77.3338 25.5123 77.3338 30.0702C77.3338 35.2327 73.0256 39.1826 66.3202 39.1826C59.6604 39.1826 54.6999 35.1482 54.2205 29.2477H59.9213V29.2412Z" fill="#211332"/>
<path d="M99.1817 47.7686V36.6177C97.1792 38.266 94.6973 39.264 91.9577 39.264C85.2556 39.264 79.9428 33.9715 79.9428 27.463C79.9428 20.9969 85.2523 15.662 91.9577 15.662C94.7005 15.662 97.2248 16.6601 99.2273 18.3506V16.2244H104.886V47.7686H99.1817ZM92.4339 20.6067C88.6898 20.6067 85.6013 23.6887 85.6013 27.463C85.6013 31.2797 88.6931 34.2738 92.4339 34.2738C96.2204 34.2738 99.2665 31.2797 99.2665 27.463C99.2665 23.6854 96.2204 20.6067 92.4339 20.6067Z" fill="#211332"/>
<path d="M114.5 16.2243V29.3712C114.5 32.1476 116.372 34.1859 119.158 34.1859C121.943 34.1859 123.857 32.2321 123.857 29.3712V16.2243H129.558V38.656H123.857V36.6599C122.288 38.2659 120.113 39.1761 117.677 39.1761C112.41 39.1761 108.796 35.3563 108.796 30.4993V16.2243H114.5Z" fill="#211332"/>
<path d="M145.053 34.2282C147.447 34.2282 149.407 33.1001 150.712 31.3218L154.759 34.2737C152.496 37.2256 149.449 39.2184 145.053 39.2184C138.09 39.2184 132.693 33.9258 132.693 27.4174C132.693 20.909 138.09 15.6587 145.053 15.6587C149.449 15.6587 152.496 17.6548 154.759 20.6034L150.712 23.5553C149.407 21.777 147.447 20.6489 145.053 20.6489C141.355 20.6489 138.351 23.643 138.351 27.4174C138.351 31.1918 141.355 34.2282 145.053 34.2282Z" fill="#211332"/>
<path d="M162.811 38.656H157.11V8.28545H162.811V18.1781C164.38 16.5299 166.598 15.6164 169.08 15.6164C174.301 15.6164 177.872 19.4785 177.872 24.381V38.656H172.171V25.5091C172.171 22.6027 170.299 20.6944 167.514 20.6944C164.771 20.6944 162.811 22.5182 162.811 25.5091V38.656Z" fill="#211332"/>
</svg>
