<svg width="87" height="31" viewBox="0 0 87 31" fill="none" xmlns="http://www.w3.org/2000/svg">
<path d="M6.00037 3.02228C2.68639 3.02228 0 5.70867 0 9.02264C0 12.3366 2.68639 15.023 6.00037 15.023H12.0007V9.02264C12.0007 5.70867 9.31434 3.02228 6.00037 3.02228Z" fill="#6200DD"/>
<path d="M0 21.0219C0 24.3359 2.68639 27.0223 6.00037 27.0223C9.31434 27.0223 12.0007 24.3359 12.0007 21.0219V15.0216H6.00037C2.68639 15.0216 0 17.708 0 21.0219Z" fill="#FF8211"/>
<path d="M23.9999 9.02264C23.9999 5.70867 21.3135 3.02228 17.9995 3.02228C14.6855 3.02228 11.9991 5.70867 11.9991 9.02264V15.023H17.9995C21.3135 15.023 23.9999 12.3366 23.9999 9.02264Z" fill="#02CAB5"/>
<path d="M17.687 24.0247C19.6762 24.0247 21.2888 22.4121 21.2888 20.4228C21.2888 18.4336 19.6762 16.821 17.687 16.821C15.6977 16.821 14.0851 18.4336 14.0851 20.4228C14.0851 22.4121 15.6977 24.0247 17.687 24.0247Z" fill="#6200DD"/>
<path d="M34.5259 15.3618C34.7181 16.746 35.7209 17.6117 37.3798 17.6117C38.8841 17.6117 39.6557 16.9001 39.6557 15.9394C39.6557 15.1515 39.0185 14.5364 37.9968 14.2858L35.7021 13.7096C33.2919 13.0946 32.1156 11.8832 32.1156 9.8652C32.1156 7.42371 34.1401 5.8479 36.783 5.8479C39.5791 5.8479 41.5458 7.598 41.9129 10.1547H39.3667C39.0777 8.82811 38.2093 8.00131 36.7628 8.00131C35.5865 8.00131 34.6993 8.61636 34.6993 9.67362C34.6993 10.5393 35.3163 11.0391 36.3582 11.307L38.6341 11.9034C41.16 12.5573 42.2409 13.7097 42.2409 15.7291C42.2409 18.0165 40.332 19.7666 37.361 19.7666C34.4103 19.7666 32.2124 17.979 32 15.3647H34.5259V15.3618Z" fill="white"/>
<path d="M51.921 23.5707V18.6301C51.0338 19.3604 49.9341 19.8026 48.7203 19.8026C45.7508 19.8026 43.3968 17.4576 43.3968 14.5739C43.3968 11.709 45.7493 9.34526 48.7203 9.34526C49.9355 9.34526 51.054 9.78747 51.9412 10.5365V9.59446H54.4484V23.5707H51.921ZM48.9313 11.5361C47.2724 11.5361 45.9039 12.9016 45.9039 14.5739C45.9039 16.265 47.2738 17.5916 48.9313 17.5916C50.6089 17.5916 51.9586 16.265 51.9586 14.5739C51.9586 12.9002 50.6089 11.5361 48.9313 11.5361Z" fill="white"/>
<path d="M58.7082 9.59441V15.4194C58.7082 16.6495 59.5377 17.5527 60.7717 17.5527C62.0058 17.5527 62.854 16.687 62.854 15.4194V9.59441H65.3799V19.5332H62.854V18.6488C62.159 19.3604 61.1951 19.7637 60.1157 19.7637C57.782 19.7637 56.1809 18.0712 56.1809 15.9192V9.59441H58.7082Z" fill="white"/>
<path d="M72.2453 17.5714C73.306 17.5714 74.1744 17.0716 74.7524 16.2837L76.5457 17.5916C75.5429 18.8995 74.1932 19.7824 72.2453 19.7824C69.1602 19.7824 66.7687 17.4374 66.7687 14.5537C66.7687 11.67 69.1602 9.34378 72.2453 9.34378C74.1932 9.34378 75.5429 10.2282 76.5457 11.5346L74.7524 12.8425C74.1744 12.0546 73.306 11.5548 72.2453 11.5548C70.6067 11.5548 69.2758 12.8814 69.2758 14.5537C69.2758 16.226 70.6067 17.5714 72.2453 17.5714Z" fill="white"/>
<path d="M80.1134 19.5332H77.5875V6.07692H80.1134V10.4601C80.8084 9.7298 81.7911 9.32504 82.8907 9.32504C85.2042 9.32504 86.7865 11.0362 86.7865 13.2084V19.5332H84.2606V13.7082C84.2606 12.4205 83.4312 11.575 82.1971 11.575C80.9818 11.575 80.1134 12.383 80.1134 13.7082V19.5332Z" fill="white"/>
</svg>
