<svg width="17" height="16" viewBox="0 0 17 16" fill="none" xmlns="http://www.w3.org/2000/svg">
<g clip-path="url(#clip0_4950_83441)">
<mask id="path-1-outside-1_4950_83441" maskUnits="userSpaceOnUse" x="-0.00195312" y="-0.25" width="16" height="16" fill="black">
<rect fill="white" x="-0.00195312" y="-0.25" width="16" height="16" />
<path d="M14.498 2.75H10.748V2.015C10.7474 1.6797 10.6139 1.35833 10.3768 1.12124C10.1397 0.884149 9.81834 0.750661 9.48305 0.75H7.01305C6.67775 0.750661 6.35638 0.884149 6.11929 1.12124C5.8822 1.35833 5.74871 1.6797 5.74805 2.015V2.75H1.99805C1.73283 2.75 1.47848 2.85536 1.29094 3.04289C1.1034 3.23043 0.998047 3.48478 0.998047 3.75V7.5C0.998047 7.69406 1.04323 7.88545 1.13001 8.05902C1.2168 8.23259 1.3428 8.38357 1.49805 8.5V13.75C1.49805 14.1478 1.65608 14.5294 1.93739 14.8107C2.21869 15.092 2.60022 15.25 2.99805 15.25H13.498C13.8959 15.25 14.2774 15.092 14.5587 14.8107C14.84 14.5294 14.998 14.1478 14.998 13.75V8.5C15.1533 8.38357 15.2793 8.23259 15.3661 8.05902C15.4529 7.88545 15.498 7.69406 15.498 7.5V3.75C15.498 3.48478 15.3927 3.23043 15.2052 3.04289C15.0176 2.85536 14.7633 2.75 14.498 2.75ZM6.24805 2.015C6.24805 1.81211 6.32864 1.61753 6.47211 1.47406C6.61558 1.3306 6.81016 1.25 7.01305 1.25H9.48305C9.68594 1.25 9.88052 1.3306 10.024 1.47406C10.1674 1.61753 10.248 1.81211 10.248 2.015V2.75H6.24805V2.015ZM14.498 8.75V13.75C14.498 14.0152 14.3927 14.2696 14.2052 14.4571C14.0176 14.6446 13.7633 14.75 13.498 14.75H2.99805C2.73283 14.75 2.47848 14.6446 2.29094 14.4571C2.1034 14.2696 1.99805 14.0152 1.99805 13.75V8.75H2.99805V10C2.99805 10.1989 3.07706 10.3897 3.21772 10.5303C3.35837 10.671 3.54913 10.75 3.74805 10.75C3.94696 10.75 4.13772 10.671 4.27838 10.5303C4.41903 10.3897 4.49805 10.1989 4.49805 10V8.75H7.49805V9.25C7.49805 9.44891 7.57706 9.63968 7.71772 9.78033C7.85837 9.92098 8.04913 10 8.24805 10C8.44696 10 8.63772 9.92098 8.77838 9.78033C8.91903 9.63968 8.99805 9.44891 8.99805 9.25V8.75H11.998V10C11.998 10.1989 12.0771 10.3897 12.2177 10.5303C12.3584 10.671 12.5491 10.75 12.748 10.75C12.947 10.75 13.1377 10.671 13.2784 10.5303C13.419 10.3897 13.498 10.1989 13.498 10V8.75H14.498ZM3.49805 10V7.5C3.49805 7.4337 3.52439 7.37011 3.57127 7.32322C3.61815 7.27634 3.68174 7.25 3.74805 7.25C3.81435 7.25 3.87794 7.27634 3.92482 7.32322C3.97171 7.37011 3.99805 7.4337 3.99805 7.5V10C3.99805 10.0663 3.97171 10.1299 3.92482 10.1768C3.87794 10.2237 3.81435 10.25 3.74805 10.25C3.68174 10.25 3.61815 10.2237 3.57127 10.1768C3.52439 10.1299 3.49805 10.0663 3.49805 10ZM7.99805 9.25V8.25C7.99805 8.1837 8.02439 8.12011 8.07127 8.07322C8.11815 8.02634 8.18174 8 8.24805 8C8.31435 8 8.37794 8.02634 8.42482 8.07322C8.47171 8.12011 8.49805 8.1837 8.49805 8.25V9.25C8.49805 9.3163 8.47171 9.37989 8.42482 9.42678C8.37794 9.47366 8.31435 9.5 8.24805 9.5C8.18174 9.5 8.11815 9.47366 8.07127 9.42678C8.02439 9.37989 7.99805 9.3163 7.99805 9.25ZM12.498 10V7.5C12.498 7.4337 12.5244 7.37011 12.5713 7.32322C12.6182 7.27634 12.6817 7.25 12.748 7.25C12.8144 7.25 12.8779 7.27634 12.9248 7.32322C12.9717 7.37011 12.998 7.4337 12.998 7.5V10C12.998 10.0663 12.9717 10.1299 12.9248 10.1768C12.8779 10.2237 12.8144 10.25 12.748 10.25C12.6817 10.25 12.6182 10.2237 12.5713 10.1768C12.5244 10.1299 12.498 10.0663 12.498 10ZM14.998 7.5C14.998 7.69891 14.919 7.88968 14.7784 8.03033C14.6377 8.17098 14.447 8.25 14.248 8.25H13.498V7.5C13.498 7.30109 13.419 7.11032 13.2784 6.96967C13.1377 6.82902 12.947 6.75 12.748 6.75C12.5491 6.75 12.3584 6.82902 12.2177 6.96967C12.0771 7.11032 11.998 7.30109 11.998 7.5V8.25H8.99805C8.99805 8.05109 8.91903 7.86032 8.77838 7.71967C8.63772 7.57902 8.44696 7.5 8.24805 7.5C8.04913 7.5 7.85837 7.57902 7.71772 7.71967C7.57706 7.86032 7.49805 8.05109 7.49805 8.25H4.49805V7.5C4.49805 7.30109 4.41903 7.11032 4.27838 6.96967C4.13772 6.82902 3.94696 6.75 3.74805 6.75C3.54913 6.75 3.35837 6.82902 3.21772 6.96967C3.07706 7.11032 2.99805 7.30109 2.99805 7.5V8.25H2.24805C2.04913 8.25 1.85837 8.17098 1.71772 8.03033C1.57706 7.88968 1.49805 7.69891 1.49805 7.5V3.75C1.49805 3.61739 1.55073 3.49021 1.64449 3.39645C1.73826 3.30268 1.86544 3.25 1.99805 3.25H14.498C14.6307 3.25 14.7578 3.30268 14.8516 3.39645C14.9454 3.49021 14.998 3.61739 14.998 3.75V7.5Z" />
</mask>
<path d="M14.498 2.75H10.748V2.015C10.7474 1.6797 10.6139 1.35833 10.3768 1.12124C10.1397 0.884149 9.81834 0.750661 9.48305 0.75H7.01305C6.67775 0.750661 6.35638 0.884149 6.11929 1.12124C5.8822 1.35833 5.74871 1.6797 5.74805 2.015V2.75H1.99805C1.73283 2.75 1.47848 2.85536 1.29094 3.04289C1.1034 3.23043 0.998047 3.48478 0.998047 3.75V7.5C0.998047 7.69406 1.04323 7.88545 1.13001 8.05902C1.2168 8.23259 1.3428 8.38357 1.49805 8.5V13.75C1.49805 14.1478 1.65608 14.5294 1.93739 14.8107C2.21869 15.092 2.60022 15.25 2.99805 15.25H13.498C13.8959 15.25 14.2774 15.092 14.5587 14.8107C14.84 14.5294 14.998 14.1478 14.998 13.75V8.5C15.1533 8.38357 15.2793 8.23259 15.3661 8.05902C15.4529 7.88545 15.498 7.69406 15.498 7.5V3.75C15.498 3.48478 15.3927 3.23043 15.2052 3.04289C15.0176 2.85536 14.7633 2.75 14.498 2.75ZM6.24805 2.015C6.24805 1.81211 6.32864 1.61753 6.47211 1.47406C6.61558 1.3306 6.81016 1.25 7.01305 1.25H9.48305C9.68594 1.25 9.88052 1.3306 10.024 1.47406C10.1674 1.61753 10.248 1.81211 10.248 2.015V2.75H6.24805V2.015ZM14.498 8.75V13.75C14.498 14.0152 14.3927 14.2696 14.2052 14.4571C14.0176 14.6446 13.7633 14.75 13.498 14.75H2.99805C2.73283 14.75 2.47848 14.6446 2.29094 14.4571C2.1034 14.2696 1.99805 14.0152 1.99805 13.75V8.75H2.99805V10C2.99805 10.1989 3.07706 10.3897 3.21772 10.5303C3.35837 10.671 3.54913 10.75 3.74805 10.75C3.94696 10.75 4.13772 10.671 4.27838 10.5303C4.41903 10.3897 4.49805 10.1989 4.49805 10V8.75H7.49805V9.25C7.49805 9.44891 7.57706 9.63968 7.71772 9.78033C7.85837 9.92098 8.04913 10 8.24805 10C8.44696 10 8.63772 9.92098 8.77838 9.78033C8.91903 9.63968 8.99805 9.44891 8.99805 9.25V8.75H11.998V10C11.998 10.1989 12.0771 10.3897 12.2177 10.5303C12.3584 10.671 12.5491 10.75 12.748 10.75C12.947 10.75 13.1377 10.671 13.2784 10.5303C13.419 10.3897 13.498 10.1989 13.498 10V8.75H14.498ZM3.49805 10V7.5C3.49805 7.4337 3.52439 7.37011 3.57127 7.32322C3.61815 7.27634 3.68174 7.25 3.74805 7.25C3.81435 7.25 3.87794 7.27634 3.92482 7.32322C3.97171 7.37011 3.99805 7.4337 3.99805 7.5V10C3.99805 10.0663 3.97171 10.1299 3.92482 10.1768C3.87794 10.2237 3.81435 10.25 3.74805 10.25C3.68174 10.25 3.61815 10.2237 3.57127 10.1768C3.52439 10.1299 3.49805 10.0663 3.49805 10ZM7.99805 9.25V8.25C7.99805 8.1837 8.02439 8.12011 8.07127 8.07322C8.11815 8.02634 8.18174 8 8.24805 8C8.31435 8 8.37794 8.02634 8.42482 8.07322C8.47171 8.12011 8.49805 8.1837 8.49805 8.25V9.25C8.49805 9.3163 8.47171 9.37989 8.42482 9.42678C8.37794 9.47366 8.31435 9.5 8.24805 9.5C8.18174 9.5 8.11815 9.47366 8.07127 9.42678C8.02439 9.37989 7.99805 9.3163 7.99805 9.25ZM12.498 10V7.5C12.498 7.4337 12.5244 7.37011 12.5713 7.32322C12.6182 7.27634 12.6817 7.25 12.748 7.25C12.8144 7.25 12.8779 7.27634 12.9248 7.32322C12.9717 7.37011 12.998 7.4337 12.998 7.5V10C12.998 10.0663 12.9717 10.1299 12.9248 10.1768C12.8779 10.2237 12.8144 10.25 12.748 10.25C12.6817 10.25 12.6182 10.2237 12.5713 10.1768C12.5244 10.1299 12.498 10.0663 12.498 10ZM14.998 7.5C14.998 7.69891 14.919 7.88968 14.7784 8.03033C14.6377 8.17098 14.447 8.25 14.248 8.25H13.498V7.5C13.498 7.30109 13.419 7.11032 13.2784 6.96967C13.1377 6.82902 12.947 6.75 12.748 6.75C12.5491 6.75 12.3584 6.82902 12.2177 6.96967C12.0771 7.11032 11.998 7.30109 11.998 7.5V8.25H8.99805C8.99805 8.05109 8.91903 7.86032 8.77838 7.71967C8.63772 7.57902 8.44696 7.5 8.24805 7.5C8.04913 7.5 7.85837 7.57902 7.71772 7.71967C7.57706 7.86032 7.49805 8.05109 7.49805 8.25H4.49805V7.5C4.49805 7.30109 4.41903 7.11032 4.27838 6.96967C4.13772 6.82902 3.94696 6.75 3.74805 6.75C3.54913 6.75 3.35837 6.82902 3.21772 6.96967C3.07706 7.11032 2.99805 7.30109 2.99805 7.5V8.25H2.24805C2.04913 8.25 1.85837 8.17098 1.71772 8.03033C1.57706 7.88968 1.49805 7.69891 1.49805 7.5V3.75C1.49805 3.61739 1.55073 3.49021 1.64449 3.39645C1.73826 3.30268 1.86544 3.25 1.99805 3.25H14.498C14.6307 3.25 14.7578 3.30268 14.8516 3.39645C14.9454 3.49021 14.998 3.61739 14.998 3.75V7.5Z" fill="#262626" />
<path d="M14.498 2.75H10.748V2.015C10.7474 1.6797 10.6139 1.35833 10.3768 1.12124C10.1397 0.884149 9.81834 0.750661 9.48305 0.75H7.01305C6.67775 0.750661 6.35638 0.884149 6.11929 1.12124C5.8822 1.35833 5.74871 1.6797 5.74805 2.015V2.75H1.99805C1.73283 2.75 1.47848 2.85536 1.29094 3.04289C1.1034 3.23043 0.998047 3.48478 0.998047 3.75V7.5C0.998047 7.69406 1.04323 7.88545 1.13001 8.05902C1.2168 8.23259 1.3428 8.38357 1.49805 8.5V13.75C1.49805 14.1478 1.65608 14.5294 1.93739 14.8107C2.21869 15.092 2.60022 15.25 2.99805 15.25H13.498C13.8959 15.25 14.2774 15.092 14.5587 14.8107C14.84 14.5294 14.998 14.1478 14.998 13.75V8.5C15.1533 8.38357 15.2793 8.23259 15.3661 8.05902C15.4529 7.88545 15.498 7.69406 15.498 7.5V3.75C15.498 3.48478 15.3927 3.23043 15.2052 3.04289C15.0176 2.85536 14.7633 2.75 14.498 2.75ZM6.24805 2.015C6.24805 1.81211 6.32864 1.61753 6.47211 1.47406C6.61558 1.3306 6.81016 1.25 7.01305 1.25H9.48305C9.68594 1.25 9.88052 1.3306 10.024 1.47406C10.1674 1.61753 10.248 1.81211 10.248 2.015V2.75H6.24805V2.015ZM14.498 8.75V13.75C14.498 14.0152 14.3927 14.2696 14.2052 14.4571C14.0176 14.6446 13.7633 14.75 13.498 14.75H2.99805C2.73283 14.75 2.47848 14.6446 2.29094 14.4571C2.1034 14.2696 1.99805 14.0152 1.99805 13.75V8.75H2.99805V10C2.99805 10.1989 3.07706 10.3897 3.21772 10.5303C3.35837 10.671 3.54913 10.75 3.74805 10.75C3.94696 10.75 4.13772 10.671 4.27838 10.5303C4.41903 10.3897 4.49805 10.1989 4.49805 10V8.75H7.49805V9.25C7.49805 9.44891 7.57706 9.63968 7.71772 9.78033C7.85837 9.92098 8.04913 10 8.24805 10C8.44696 10 8.63772 9.92098 8.77838 9.78033C8.91903 9.63968 8.99805 9.44891 8.99805 9.25V8.75H11.998V10C11.998 10.1989 12.0771 10.3897 12.2177 10.5303C12.3584 10.671 12.5491 10.75 12.748 10.75C12.947 10.75 13.1377 10.671 13.2784 10.5303C13.419 10.3897 13.498 10.1989 13.498 10V8.75H14.498ZM3.49805 10V7.5C3.49805 7.4337 3.52439 7.37011 3.57127 7.32322C3.61815 7.27634 3.68174 7.25 3.74805 7.25C3.81435 7.25 3.87794 7.27634 3.92482 7.32322C3.97171 7.37011 3.99805 7.4337 3.99805 7.5V10C3.99805 10.0663 3.97171 10.1299 3.92482 10.1768C3.87794 10.2237 3.81435 10.25 3.74805 10.25C3.68174 10.25 3.61815 10.2237 3.57127 10.1768C3.52439 10.1299 3.49805 10.0663 3.49805 10ZM7.99805 9.25V8.25C7.99805 8.1837 8.02439 8.12011 8.07127 8.07322C8.11815 8.02634 8.18174 8 8.24805 8C8.31435 8 8.37794 8.02634 8.42482 8.07322C8.47171 8.12011 8.49805 8.1837 8.49805 8.25V9.25C8.49805 9.3163 8.47171 9.37989 8.42482 9.42678C8.37794 9.47366 8.31435 9.5 8.24805 9.5C8.18174 9.5 8.11815 9.47366 8.07127 9.42678C8.02439 9.37989 7.99805 9.3163 7.99805 9.25ZM12.498 10V7.5C12.498 7.4337 12.5244 7.37011 12.5713 7.32322C12.6182 7.27634 12.6817 7.25 12.748 7.25C12.8144 7.25 12.8779 7.27634 12.9248 7.32322C12.9717 7.37011 12.998 7.4337 12.998 7.5V10C12.998 10.0663 12.9717 10.1299 12.9248 10.1768C12.8779 10.2237 12.8144 10.25 12.748 10.25C12.6817 10.25 12.6182 10.2237 12.5713 10.1768C12.5244 10.1299 12.498 10.0663 12.498 10ZM14.998 7.5C14.998 7.69891 14.919 7.88968 14.7784 8.03033C14.6377 8.17098 14.447 8.25 14.248 8.25H13.498V7.5C13.498 7.30109 13.419 7.11032 13.2784 6.96967C13.1377 6.82902 12.947 6.75 12.748 6.75C12.5491 6.75 12.3584 6.82902 12.2177 6.96967C12.0771 7.11032 11.998 7.30109 11.998 7.5V8.25H8.99805C8.99805 8.05109 8.91903 7.86032 8.77838 7.71967C8.63772 7.57902 8.44696 7.5 8.24805 7.5C8.04913 7.5 7.85837 7.57902 7.71772 7.71967C7.57706 7.86032 7.49805 8.05109 7.49805 8.25H4.49805V7.5C4.49805 7.30109 4.41903 7.11032 4.27838 6.96967C4.13772 6.82902 3.94696 6.75 3.74805 6.75C3.54913 6.75 3.35837 6.82902 3.21772 6.96967C3.07706 7.11032 2.99805 7.30109 2.99805 7.5V8.25H2.24805C2.04913 8.25 1.85837 8.17098 1.71772 8.03033C1.57706 7.88968 1.49805 7.69891 1.49805 7.5V3.75C1.49805 3.61739 1.55073 3.49021 1.64449 3.39645C1.73826 3.30268 1.86544 3.25 1.99805 3.25H14.498C14.6307 3.25 14.7578 3.30268 14.8516 3.39645C14.9454 3.49021 14.998 3.61739 14.998 3.75V7.5Z" stroke="#262626" stroke-width="0.190476" mask="url(#path-1-outside-1_4950_83441)" />
</g>
<defs>
<clipPath id="clip0_4950_83441">
<rect width="16" height="16" fill="white" transform="translate(0.248047)" />
</clipPath>
</defs>
</svg>