<svg width="21" height="17" viewBox="0 0 21 17" fill="none" xmlns="http://www.w3.org/2000/svg">
<path d="M10.5585 0.121094C11.0925 0.124094 12.4285 0.137094 13.8485 0.194094L14.3525 0.216094C15.7815 0.283094 17.2095 0.399094 17.9185 0.596094C18.8635 0.862094 19.6055 1.63609 19.8565 2.61809C20.2565 4.17809 20.3065 7.22009 20.3125 7.95709L20.3135 8.10909V8.28309C20.3065 9.02009 20.2565 12.0631 19.8565 13.6221C19.6025 14.6071 18.8595 15.3821 17.9185 15.6441C17.2095 15.8411 15.7815 15.9571 14.3525 16.0241L13.8485 16.0471C12.4285 16.1031 11.0925 16.1171 10.5585 16.1191L10.3235 16.1201H10.0685C8.93845 16.1131 4.21245 16.0621 2.70845 15.6441C1.76445 15.3781 1.02145 14.6041 0.770453 13.6221C0.370453 12.0621 0.320453 9.02009 0.314453 8.28309V7.95709C0.320453 7.22009 0.370453 4.17709 0.770453 2.61809C1.02445 1.63309 1.76745 0.858094 2.70945 0.597094C4.21245 0.178094 8.93945 0.127094 10.0695 0.121094H10.5585ZM8.31345 4.62109V11.6211L14.3135 8.12109L8.31345 4.62109Z" fill="#211332" />
</svg>