<svg width="17" height="16" viewBox="0 0 17 16" fill="none" xmlns="http://www.w3.org/2000/svg">
<path d="M1.72852 1.3335H15.0618" stroke="#5D5D5D" stroke-linecap="round" stroke-linejoin="round"/>
<path d="M13.0625 1.3335H3.72917C3.36098 1.3335 3.0625 1.63197 3.0625 2.00016V14.0002C3.0625 14.3684 3.36098 14.6668 3.72917 14.6668H13.0625C13.4307 14.6668 13.7292 14.3684 13.7292 14.0002V2.00016C13.7292 1.63197 13.4307 1.3335 13.0625 1.3335Z" stroke="#5D5D5D" stroke-linejoin="round"/>
<path d="M7.0625 10.667H9.72917V14.667H7.0625V10.667Z" stroke="#5D5D5D" stroke-linecap="round" stroke-linejoin="round"/>
<path d="M5.39453 4H6.0612M5.39453 6H6.0612M8.0612 4H8.72786M8.0612 6H8.72786M10.7279 4H11.3945M10.7279 6H11.3945" stroke="#5D5D5D" stroke-linecap="round"/>
<path d="M1.72852 14.667H15.0618M9.72852 10.667H10.3952C10.5792 10.667 10.7318 10.5163 10.6965 10.3357C10.5125 9.38899 9.55218 8.66699 8.39518 8.66699C7.23818 8.66699 6.27785 9.38866 6.09385 10.3357C6.05852 10.5163 6.21118 10.667 6.39518 10.667H7.06185" stroke="#5D5D5D" stroke-linecap="round" stroke-linejoin="round"/>
</svg>
