<svg width="41" height="14" viewBox="0 0 41 14" fill="none" xmlns="http://www.w3.org/2000/svg">
<path d="M2.9062 1.46875C1.37879 1.46875 0.140625 2.70691 0.140625 4.23433C0.140625 5.76174 1.37879 6.9999 2.9062 6.9999H5.67178V4.23433C5.67178 2.70691 4.43361 1.46875 2.9062 1.46875Z" fill="#6200DD"/>
<path d="M0.140625 9.76558C0.140625 11.293 1.37879 12.5312 2.9062 12.5312C4.43361 12.5312 5.67178 11.293 5.67178 9.76558V7H2.9062C1.37879 7 0.140625 8.23816 0.140625 9.76558Z" fill="#FF8211"/>
<path d="M11.203 4.23433C11.203 2.70691 9.96486 1.46875 8.43745 1.46875C6.91004 1.46875 5.67188 2.70691 5.67188 4.23433V6.9999H8.43745C9.96486 6.9999 11.203 5.76174 11.203 4.23433Z" fill="#02CAB5"/>
<path d="M8.2929 11.1483C9.20974 11.1483 9.95298 10.4051 9.95298 9.48821C9.95298 8.57137 9.20974 7.82812 8.2929 7.82812C7.37606 7.82812 6.63281 8.57137 6.63281 9.48821C6.63281 10.4051 7.37606 11.1483 8.2929 11.1483Z" fill="#CD99FE"/>
<path d="M16.0529 7.23653C16.1414 7.87452 16.6037 8.27351 17.3682 8.27351C18.0616 8.27351 18.4172 7.94556 18.4172 7.50275C18.4172 7.1396 18.1235 6.85612 17.6526 6.74061L16.595 6.47505C15.4841 6.19157 14.942 5.63324 14.942 4.70314C14.942 3.57785 15.875 2.85156 17.0932 2.85156C18.3819 2.85156 19.2883 3.65819 19.4575 4.83658H18.284C18.1508 4.22514 17.7505 3.84407 17.0838 3.84407C16.5417 3.84407 16.1328 4.12755 16.1328 4.61484C16.1328 5.01384 16.4172 5.24421 16.8974 5.36769L17.9463 5.64254C19.1105 5.94394 19.6087 6.47505 19.6087 7.40582C19.6087 8.46007 18.7289 9.26669 17.3596 9.26669C15.9996 9.26669 14.9866 8.44281 14.8887 7.23786H16.0529V7.23653Z" fill="#CD99FE"/>
<path d="M24.0703 11.02V8.74291C23.6614 9.0795 23.1545 9.28331 22.5951 9.28331C21.2264 9.28331 20.1415 8.20251 20.1415 6.87341C20.1415 5.55294 21.2257 4.4635 22.5951 4.4635C23.1552 4.4635 23.6707 4.66732 24.0796 5.01254V4.57835H25.2351V11.02H24.0703ZM22.6923 5.47327C21.9277 5.47327 21.297 6.10264 21.297 6.87341C21.297 7.65281 21.9284 8.26425 22.6923 8.26425C23.4656 8.26425 24.0876 7.65281 24.0876 6.87341C24.0876 6.10197 23.4656 5.47327 22.6923 5.47327Z" fill="#CD99FE"/>
<path d="M27.1985 4.57833V7.26309C27.1985 7.83004 27.5808 8.2463 28.1496 8.2463C28.7184 8.2463 29.1093 7.84731 29.1093 7.26309V4.57833H30.2735V9.15914H29.1093V8.75152C28.789 9.07948 28.3447 9.26536 27.8472 9.26536C26.7716 9.26536 26.0337 8.4853 26.0337 7.49345V4.57833H27.1985Z" fill="#CD99FE"/>
<path d="M33.4378 8.25493C33.9266 8.25493 34.3269 8.02457 34.5933 7.66142L35.4198 8.26423C34.9576 8.86704 34.3356 9.274 33.4378 9.274C32.0159 9.274 30.9136 8.19319 30.9136 6.86409C30.9136 5.53499 32.0159 4.46282 33.4378 4.46282C34.3356 4.46282 34.9576 4.87044 35.4198 5.47259L34.5933 6.0754C34.3269 5.71225 33.9266 5.48188 33.4378 5.48188C32.6825 5.48188 32.0691 6.09332 32.0691 6.86409C32.0691 7.63486 32.6825 8.25493 33.4378 8.25493Z" fill="#CD99FE"/>
<path d="M37.0642 9.15914H35.9V2.95712H37.0642V4.97732C37.3845 4.64073 37.8374 4.45418 38.3443 4.45418C39.4105 4.45418 40.1398 5.24288 40.1398 6.24402V9.15914H38.9756V6.47438C38.9756 5.88087 38.5934 5.49117 38.0246 5.49117C37.4645 5.49117 37.0642 5.86361 37.0642 6.47438V9.15914Z" fill="#CD99FE"/>
</svg>
