<svg width="57" height="17" viewBox="0 0 57 17" fill="none" xmlns="http://www.w3.org/2000/svg">
<path d="M4.37278 0.770508C2.2344 0.770508 0.500977 2.50393 0.500977 4.64231C0.500977 6.78069 2.2344 8.51412 4.37278 8.51412H8.24459V4.64231C8.24459 2.50393 6.51116 0.770508 4.37278 0.770508Z" fill="#6200DD"/>
<path d="M0.500977 12.3855C0.500977 14.5239 2.2344 16.2573 4.37278 16.2573C6.51116 16.2573 8.24459 14.5239 8.24459 12.3855V8.51367H4.37278C2.2344 8.51367 0.500977 10.2471 0.500977 12.3855Z" fill="#FF8211"/>
<path d="M15.9858 4.64231C15.9858 2.50393 14.2524 0.770508 12.114 0.770508C9.97561 0.770508 8.24219 2.50393 8.24219 4.64231V8.51412H12.114C14.2524 8.51412 15.9858 6.78069 15.9858 4.64231Z" fill="#02CAB5"/>
<path d="M11.914 14.323C13.1975 14.323 14.2381 13.2825 14.2381 11.9989C14.2381 10.7153 13.1975 9.6748 11.914 9.6748C10.6304 9.6748 9.58984 10.7153 9.58984 11.9989C9.58984 13.2825 10.6304 14.323 11.914 14.323Z" fill="#CD99FE"/>
<path d="M22.7783 8.7327C22.9023 9.62589 23.5494 10.1845 24.6198 10.1845C25.5905 10.1845 26.0884 9.72534 26.0884 9.10541C26.0884 8.597 25.6772 8.20013 25.018 8.03841L23.5373 7.66663C21.982 7.26976 21.223 6.4881 21.223 5.18596C21.223 3.61056 22.5293 2.59375 24.2347 2.59375C26.039 2.59375 27.308 3.72302 27.5448 5.37278H25.9019C25.7154 4.51676 25.155 3.98326 24.2217 3.98326C23.4627 3.98326 22.8902 4.38013 22.8902 5.06234C22.8902 5.62094 23.2883 5.94345 23.9606 6.11633L25.4292 6.50112C27.059 6.92308 27.7565 7.66664 27.7565 8.96971C27.7565 10.4457 26.5248 11.5749 24.6077 11.5749C22.7037 11.5749 21.2855 10.4215 21.1484 8.73456H22.7783V8.7327Z" fill="#CD99FE"/>
<path d="M34.0027 14.0296V10.8416C33.4302 11.3129 32.7206 11.5982 31.9374 11.5982C30.0213 11.5982 28.5024 10.0851 28.5024 8.22433C28.5024 6.37568 30.0203 4.85046 31.9374 4.85046C32.7216 4.85046 33.4432 5.1358 34.0158 5.61911V5.01126H35.6335V14.0296H34.0027ZM32.0735 6.26414C31.0031 6.26414 30.1201 7.14525 30.1201 8.22433C30.1201 9.3155 31.004 10.1715 32.0735 10.1715C33.1561 10.1715 34.0269 9.3155 34.0269 8.22433C34.0269 7.14432 33.1561 6.26414 32.0735 6.26414Z" fill="#CD99FE"/>
<path d="M38.3822 5.01123V8.76988C38.3822 9.56363 38.9175 10.1464 39.7137 10.1464C40.51 10.1464 41.0573 9.58779 41.0573 8.76988V5.01123H42.6872V11.4244H41.0573V10.8537C40.6089 11.3128 39.9869 11.5731 39.2904 11.5731C37.7846 11.5731 36.7514 10.481 36.7514 9.0924V5.01123H38.3822Z" fill="#CD99FE"/>
<path d="M47.1172 10.1585C47.8016 10.1585 48.362 9.83595 48.7349 9.32755L49.8921 10.1715C49.245 11.0154 48.3741 11.5852 47.1172 11.5852C45.1265 11.5852 43.5833 10.072 43.5833 8.21129C43.5833 6.35055 45.1265 4.84951 47.1172 4.84951C48.3741 4.84951 49.245 5.42018 49.8921 6.26318L48.7349 7.10712C48.362 6.59871 47.8016 6.2762 47.1172 6.2762C46.0598 6.2762 45.2011 7.13221 45.2011 8.21129C45.2011 9.29037 46.0598 10.1585 47.1172 10.1585Z" fill="#CD99FE"/>
<path d="M52.1942 11.4244H50.5643V2.74153H52.1942V5.56982C52.6427 5.09859 53.2767 4.83742 53.9863 4.83742C55.4791 4.83742 56.5001 5.94159 56.5001 7.34319V11.4244H54.8702V7.6657C54.8702 6.83478 54.335 6.2892 53.5387 6.2892C52.7545 6.2892 52.1942 6.81062 52.1942 7.6657V11.4244Z" fill="#CD99FE"/>
</svg>
