<svg width="25" height="25" viewBox="0 0 25 25" fill="none" xmlns="http://www.w3.org/2000/svg">
<path d="M21.3945 12.1211V4.62109C21.3945 4.22327 21.2365 3.84174 20.9552 3.56043C20.6739 3.27913 20.2924 3.12109 19.8945 3.12109H4.89453C4.49671 3.12109 4.11518 3.27913 3.83387 3.56043C3.55257 3.84174 3.39453 4.22327 3.39453 4.62109V19.6211C3.39453 20.0189 3.55257 20.4004 3.83387 20.6818C4.11518 20.9631 4.49671 21.1211 4.89453 21.1211H12.3945" stroke="#652669" stroke-width="1.5" stroke-linecap="round" stroke-linejoin="round"/>
<path d="M16.3945 19.1211C18.0514 19.1211 19.3945 17.7779 19.3945 16.1211C19.3945 14.4642 18.0514 13.1211 16.3945 13.1211C14.7377 13.1211 13.3945 14.4642 13.3945 16.1211C13.3945 17.7779 14.7377 19.1211 16.3945 19.1211Z" stroke="#652669" stroke-width="1.5"/>
<path d="M18.8945 18.1211L21.3945 20.1211M7.39453 8.12109H17.3945M7.39453 12.1211H11.3945" stroke="#652669" stroke-width="1.5" stroke-linecap="round" stroke-linejoin="round"/>
</svg>
