<svg width="21" height="20" viewBox="0 0 21 20" fill="none" xmlns="http://www.w3.org/2000/svg">
<path d="M19.3945 10.1211V2.62109C19.3945 2.22327 19.2365 1.84174 18.9552 1.56043C18.6739 1.27913 18.2924 1.12109 17.8945 1.12109H2.89453C2.49671 1.12109 2.11518 1.27913 1.83387 1.56043C1.55257 1.84174 1.39453 2.22327 1.39453 2.62109V17.6211C1.39453 18.0189 1.55257 18.4004 1.83387 18.6818C2.11518 18.9631 2.49671 19.1211 2.89453 19.1211H10.3945" stroke="#6D6D6D" stroke-width="1.5" stroke-linecap="round" stroke-linejoin="round"/>
<path d="M14.3945 17.1211C16.0514 17.1211 17.3945 15.7779 17.3945 14.1211C17.3945 12.4642 16.0514 11.1211 14.3945 11.1211C12.7377 11.1211 11.3945 12.4642 11.3945 14.1211C11.3945 15.7779 12.7377 17.1211 14.3945 17.1211Z" stroke="#6D6D6D" stroke-width="1.5"/>
<path d="M16.8945 16.1211L19.3945 18.1211M5.39453 6.12109H15.3945M5.39453 10.1211H9.39453" stroke="#6D6D6D" stroke-width="1.5" stroke-linecap="round" stroke-linejoin="round"/>
</svg>
