<svg width="23" height="23" viewBox="0 0 23 23" fill="none" xmlns="http://www.w3.org/2000/svg">
<path d="M20.5618 11.1208C20.5618 6.06077 16.4552 1.9541 11.3952 1.9541C6.33518 1.9541 2.22852 6.06077 2.22852 11.1208C2.22852 16.1808 6.33518 20.2874 11.3952 20.2874" stroke="#838383" stroke-width="1.5" stroke-linecap="round" stroke-linejoin="round"/>
<path d="M7.72865 2.87109H8.64531C6.85781 8.22443 6.85781 14.0178 8.64531 19.3711H7.72865" stroke="#838383" stroke-width="1.5" stroke-linecap="round" stroke-linejoin="round"/>
<path d="M14.1445 2.87109C15.0337 5.54776 15.4829 8.33443 15.4829 11.1211" stroke="#838383" stroke-width="1.5" stroke-linecap="round" stroke-linejoin="round"/>
<path d="M3.14453 14.7878V13.8711C5.8212 14.7603 8.60786 15.2094 11.3945 15.2094" stroke="#838383" stroke-width="1.5" stroke-linecap="round" stroke-linejoin="round"/>
<path d="M3.14453 8.3709C8.49786 6.5834 14.2912 6.5834 19.6445 8.3709" stroke="#838383" stroke-width="1.5" stroke-linecap="round" stroke-linejoin="round"/>
<path d="M17.0779 19.7378C18.6979 19.7378 20.0112 18.4245 20.0112 16.8044C20.0112 15.1844 18.6979 13.8711 17.0779 13.8711C15.4578 13.8711 14.1445 15.1844 14.1445 16.8044C14.1445 18.4245 15.4578 19.7378 17.0779 19.7378Z" stroke="#838383" stroke-width="1.5" stroke-linecap="round" stroke-linejoin="round"/>
<path d="M20.5612 20.2878L19.6445 19.3711" stroke="#838383" stroke-width="1.5" stroke-linecap="round" stroke-linejoin="round"/>
</svg>
