<svg width="16" height="17" viewBox="0 0 16 17" fill="none" xmlns="http://www.w3.org/2000/svg"><path d="M11.5262 3.26068L11.4795 5.78735C11.4729 6.13401 11.6929 6.59401 11.9729 6.80068L13.6262 8.05401C14.6862 8.85401 14.5129 9.83401 13.2462 10.234L11.0929 10.9073C10.7329 11.0207 10.3529 11.414 10.2595 11.7807L9.7462 13.7407C9.33953 15.2873 8.3262 15.4407 7.4862 14.0807L6.31286 12.1807C6.09953 11.834 5.59286 11.574 5.19286 11.594L2.9662 11.7073C1.37286 11.7873 0.919529 10.8673 1.95953 9.65401L3.27953 8.12068C3.5262 7.83401 3.63953 7.30068 3.5262 6.94068L2.8462 4.78068C2.45286 3.51401 3.15953 2.81401 4.41953 3.22735L6.3862 3.87401C6.71953 3.98068 7.21953 3.90735 7.49953 3.70068L9.55286 2.22068C10.6662 1.42735 11.5529 1.89401 11.5262 3.26068Z" fill="#20A66A" /><path d="M14.2935 14.1474L12.2735 12.1274C12.0802 11.9341 11.7602 11.9341 11.5669 12.1274C11.3735 12.3208 11.3735 12.6408 11.5669 12.8341L13.5869 14.8541C13.6869 14.9541 13.8135 15.0008 13.9402 15.0008C14.0669 15.0008 14.1935 14.9541 14.2935 14.8541C14.4869 14.6608 14.4869 14.3408 14.2935 14.1474Z" fill="#20A66A" /></svg>
